<?xml version="1.0" encoding="UTF-8" standalone="no"?>
<!-- Created with Inkscape (http://www.inkscape.org/) -->

<svg
   width="205.68709mm"
   height="205.68709mm"
   viewBox="0 0 205.68709 205.68709"
   version="1.1"
   id="svg5"
   sodipodi:docname="icon_maskable.svg"
   inkscape:version="1.1.2 (0a00cf5339, 2022-02-04, custom)"
   xmlns:inkscape="http://www.inkscape.org/namespaces/inkscape"
   xmlns:sodipodi="http://sodipodi.sourceforge.net/DTD/sodipodi-0.dtd"
   xmlns:xlink="http://www.w3.org/1999/xlink"
   xmlns="http://www.w3.org/2000/svg"
   xmlns:svg="http://www.w3.org/2000/svg">
  <sodipodi:namedview
     id="namedview7"
     pagecolor="#ffffff"
     bordercolor="#666666"
     borderopacity="1.0"
     inkscape:pageshadow="2"
     inkscape:pageopacity="0.0"
     inkscape:pagecheckerboard="0"
     inkscape:document-units="mm"
     showgrid="false"
     inkscape:snap-bbox="true"
     inkscape:bbox-paths="true"
     inkscape:snap-smooth-nodes="false"
     inkscape:snap-midpoints="false"
     inkscape:snap-global="false"
     inkscape:snap-bbox-midpoints="true"
     inkscape:object-nodes="false"
     inkscape:snap-others="false"
     inkscape:zoom="0.39685475"
     inkscape:rotation="-1"
     inkscape:cx="168.24628"
     inkscape:cy="246.56676"
     inkscape:window-width="1920"
     inkscape:window-height="1005"
     inkscape:window-x="0"
     inkscape:window-y="0"
     inkscape:window-maximized="1"
     inkscape:current-layer="layer1" />
  <defs
     id="defs2">
    <pattern
       xlink:href="#pattern9775"
       id="pattern9782"
       patternTransform="matrix(0.7760694,0,0,0.7760694,-1.9275959e-6,1.2674705e-5)" />
    <pattern
       xlink:href="#pattern9768"
       id="pattern9773"
       patternTransform="matrix(0.29793842,0,0,0.29793842,1.8519316e-6,5.8160064e-6)" />
    <linearGradient
       id="linearGradient3672">
      <stop
         style="stop-color:#ffffff;stop-opacity:1;"
         offset="0"
         id="stop3670" />
    </linearGradient>
    <pattern
       patternUnits="userSpaceOnUse"
       width="39.999996"
       height="39.999994"
       patternTransform="translate(-61.204331,-63.201445)"
       id="pattern9476">
      <path
         id="path8124"
         style="fill:#f2ebe6;fill-opacity:1;fill-rule:evenodd;stroke:none;stroke-width:1.6895;stroke-linecap:round;stroke-linejoin:round;stroke-miterlimit:4;stroke-dasharray:none;paint-order:fill markers stroke"
         d="M 19.999997,0 V 1.0351559 L 21.035153,0 Z m 2.779295,0 -2.779295,2.7792983 V 4.1972674 L 24.195308,0 Z M 25.93945,0 19.999997,5.9394557 V 7.3574249 L 27.355465,0 Z m 3.160158,0 -9.099611,9.1015635 V 10.517579 L 30.517577,0 Z M 32.261715,0 19.999997,12.261721 V 13.67969 L 33.677731,0 Z m 3.160154,0 -15.421872,15.423829 v 1.416019 L 36.837888,0 Z m 3.160158,0 -18.58203,18.583986 v 1.416011 L 39.999996,0 Z m -18.58203,19.999997 v 1.744139 L 1.7441386,39.999994 H 3.1601537 L 19.999997,23.162109 v 1.744139 L 4.9042923,39.999994 H 6.3203074 L 19.999997,26.322266 v 1.744142 L 8.0644498,39.999994 H 9.4824189 L 19.999997,29.482427 v 1.744139 l -8.77344,8.773428 h 1.416016 l 7.357424,-7.355459 v 1.744142 l -5.613282,5.611317 h 1.417969 l 4.195313,-4.195309 v 1.744138 l -2.453128,2.451171 h 1.417969 l 1.035159,-1.033198 v 1.033198 H 39.999996 V 19.999997 H 38.96484 l 1.035156,-1.033201 v -1.41797 l -2.453125,2.451171 h -1.742189 l 4.195314,-4.195309 v -1.416015 l -5.613283,5.611324 h -1.744138 l 7.357421,-7.355463 v -1.417969 l -8.773437,8.773432 H 29.482417 L 39.999996,9.4824227 V 8.0664076 L 28.064452,19.999997 H 26.320309 L 39.999996,6.3222652 V 4.9062501 L 24.904294,19.999997 H 23.160151 L 39.999996,3.1621115 V 1.7441424 L 21.744136,19.999997 Z m 0,0 H 18.582028 L 0,38.583983 v 1.416011 z M 0,19.999997 v 1.03516 l 1.0351483,-1.03516 z m 2.7773405,0 L 0,22.779296 v 1.417973 l 4.1953096,-4.197272 z m 3.1621077,0 L 0,25.939456 v 1.417969 l 7.3554633,-7.357428 z m 3.1601575,0 L 0,29.101568 v 1.416007 L 10.517575,19.999997 Z m 3.1621073,0 L 0,32.261718 v 1.417969 l 13.677732,-13.67969 z m 3.160158,0 L 0,35.423825 v 1.416019 L 16.837886,19.999997 Z" />
    </pattern>
    <pattern
       patternUnits="userSpaceOnUse"
       width="79.999999"
       height="79.999999"
       patternTransform="translate(-218.99805,195.375)"
       id="pattern9768">
      <path
         id="rect9629"
         style="fill:#f4e3d7;fill-opacity:1;fill-rule:evenodd;stroke:none;stroke-width:21.3803;stroke-linecap:round;stroke-linejoin:round;stroke-miterlimit:4;stroke-dasharray:none;paint-order:fill markers stroke"
         d="M 0,0 V 39.999999 H 2.06836 L 0,42.070309 v 3.48828 l 5.5566399,-5.55859 h 2.83399 L 0,48.392579 v 3.48633 l 11.87891,-11.87891 h 2.83398 L 0,54.712889 v 3.48828 l 18.19922,-18.20117 h 2.83399 L 0,61.035159 v 3.48828 l 24.52149,-24.52344 h 2.83398 L 0,67.357419 v 3.48633 l 30.84375,-30.84375 h 2.83399 L 0,73.677729 v 3.48829 l 37.16602,-37.16602 h 2.833979 V 37.16602 L 77.166019,0 h -3.48828 L 39.999999,33.67969 V 30.84375 L 70.843749,0 h -3.48828 L 39.999999,27.35742 V 24.52344 L 64.521489,0 h -3.48828 L 39.999999,21.03516 V 18.20117 L 58.199219,0 h -3.48633 L 39.999999,14.71289 V 11.87891 L 51.878909,0 h -3.48828 l -8.39063,8.3925799 v -2.83399 L 45.556639,0 h -3.48828 l -2.06836,2.07031 V 0 Z m 39.999999,39.999999 h 3.48633 L 79.999999,3.48828 V 0 Z m 0,0 -39.999999,40 h 3.48633 l 36.513669,-36.51172 z m 40,-33.6777291 -33.67773,33.6777291 h 3.48633 l 30.1914,-30.1894491 z m 0,6.3222601 -27.35742,27.355469 h 3.48828 L 79.999999,16.13086 Z m 0,6.32031 -21.03515,21.035159 h 3.48828 L 79.999999,22.45312 Z m 0,6.32227 -14.71289,14.712889 h 3.48633 L 79.999999,28.77539 Z m 0,6.32227 -8.39257,8.390619 h 3.48828 l 4.90429,-4.904299 z m 0,6.32031 -2.07031,2.070309 h 2.07031 z m -40,8.392579 -33.6777291,33.67773 h 3.48633 L 39.999999,49.810549 Z m 0,6.32226 -27.357419,27.35547 h 3.48828 l 23.869139,-23.86914 z m 0,6.32031 -21.035149,21.03516 h 3.48828 l 17.546869,-17.54688 z m 0,6.32227 -14.712889,14.71289 h 3.48633 l 11.226559,-11.22461 z m 0,6.32227 -8.392569,8.39062 h 3.48828 l 4.904289,-4.9043 z m 0,6.32031 -2.070309,2.07031 h 2.070309 z" />
    </pattern>
    <pattern
       patternUnits="userSpaceOnUse"
       width="23.835073"
       height="23.835073"
       patternTransform="translate(-218.99805,195.37499)"
       id="pattern9775">
      <rect
         style="fill:url(#pattern9773);stroke:none;stroke-width:0.297938"
         width="23.835073"
         height="23.835073"
         x="0"
         y="0"
         id="rect9771" />
    </pattern>
    <pattern
       patternUnits="userSpaceOnUse"
       width="18.497671"
       height="18.497671"
       patternTransform="translate(-218.99805,195.37498)"
       id="pattern9784">
      <rect
         style="fill:url(#pattern9782);stroke:none;stroke-width:0.776069"
         width="18.497671"
         height="18.497671"
         x="0"
         y="0"
         id="rect9778" />
    </pattern>
  </defs>
  <g
     inkscape:label="Слой 1"
     inkscape:groupmode="layer"
     id="layer1"
     transform="translate(362.694,187.41158)">
    <rect
       style="fill:#241c1c;fill-rule:evenodd;stroke-width:3.25501;stroke-linecap:round;stroke-linejoin:round;paint-order:fill markers stroke"
       id="rect7698"
       width="205.68709"
       height="205.68709"
       x="-362.694"
       y="-187.41158"
       ry="16.649382" />
    <path
       id="rect3385"
       style="fill:#ffffff;fill-rule:evenodd;stroke-width:4.50047;stroke-linecap:round;stroke-linejoin:round;paint-order:fill markers stroke"
       d="m -274.43148,-151.73767 c -17.88931,7.48032 -26.45746,17.89916 -22.53961,33.94179 -0.48341,-13.18095 3.17147,-21.53204 21.06078,-29.01237 5.69397,21.75116 17.98477,16.87047 27.72513,17.21448 11.24157,0.0934 18.11767,3.89055 18.39051,13.40814 -7.4e-4,0.38609 0.0283,0.81065 0.0202,1.16159 -0.19821,7.47679 -6.98411,10.86839 -13.92274,12.8218 -11.23898,3.164088 -29.62888,2.501668 -33.59375,1.91448 -2.14969,-0.31836 -4.07804,-0.69892 -5.81469,-1.1457 2.6083,1.12164 5.5485,1.919218 8.81856,2.344848 10.31473,1.34254 20.81105,1.12282 31.41258,0 9.90605,-1.049168 16.85035,-5.903118 18.38233,-14.926438 7.68719,3.62432 12.98788,11.4236 12.98788,20.515363 -0.25101,3.964612 -0.86185,7.166569 -2.50468,10.388336 3.12212,1.191664 5.99383,2.839833 8.51144,4.83748 7.13722,5.697339 11.70498,14.464915 11.70498,24.348667 0,17.256498 -13.89276,31.148774 -31.14925,31.148774 h -82.30117 c -14.90394,0 -30.00984,-18.256279 -27.68326,-33.801709 1.70232,-11.374283 10.96985,-22.532857 19.73215,-26.789313 0.42801,-0.202631 0.85544,-0.391214 1.28194,-0.556966 -1.0983,-3.018704 -1.58029,-6.38873 -1.33682,-9.920952 0.70542,-10.23407 8.69655,-19.09384 16.03845,-21.60619 -10.79388,2.67494 -18.75012,12.38862 -18.75012,24.032391 0,2.997811 0.53551,5.864073 1.5029,8.519148 -12.83131,4.800937 -21.93402,17.116894 -21.93402,31.663858 0,18.746282 15.09153,33.837813 33.83781,33.837813 h 89.4065 c 18.74628,0 33.8383,-15.091531 33.8383,-33.837813 0,-14.54677 -9.09606,-26.874754 -21.92728,-31.67493 0.96602,-2.651025 1.49615,-5.514561 1.49615,-8.508076 0,-12.957101 -9.85243,-23.523271 -22.50398,-24.659641 0.0268,-0.3599 0.066,-0.71051 0.077,-1.08216 0.30814,-10.38479 -7.88685,-17.26507 -19.58147,-17.36227 -13.72555,-0.11412 -26.98631,6.55469 -30.68278,-17.21448 z m -20.34063,75.702303 c -4.9294,2.29e-4 -8.92525,3.99652 -8.92495,8.925918 -4e-5,4.929212 3.99574,8.925209 8.92495,8.925438 4.92959,2.47e-4 8.92596,-3.995852 8.92592,-8.925438 2.5e-4,-4.929773 -3.99614,-8.926221 -8.92592,-8.925918 z m 69.84236,0 c -4.92939,2.32e-4 -8.92525,3.996522 -8.92495,8.925918 -4e-5,4.929209 3.99574,8.925207 8.92495,8.925438 4.92959,2.47e-4 8.92596,-3.995852 8.92592,-8.925438 2.5e-4,-4.929773 -3.99614,-8.926221 -8.92592,-8.925918 z"
       sodipodi:nodetypes="ccccccsscssccccssssccscscsssscscsccccccccccccc" />
  </g>
</svg>
