<?xml version="1.0" encoding="UTF-8" standalone="no"?>
<!-- Created with Inkscape (http://www.inkscape.org/) -->

<svg
   width="167.52005mm"
   height="167.52005mm"
   viewBox="0 0 167.52005 167.52005"
   version="1.1"
   id="svg5"
   sodipodi:docname="icon_maskable.svg"
   inkscape:version="1.1.1 (3bf5ae0d25, 2021-09-20, custom)"
   xmlns:inkscape="http://www.inkscape.org/namespaces/inkscape"
   xmlns:sodipodi="http://sodipodi.sourceforge.net/DTD/sodipodi-0.dtd"
   xmlns="http://www.w3.org/2000/svg"
   xmlns:svg="http://www.w3.org/2000/svg">
  <sodipodi:namedview
     id="namedview18"
     pagecolor="#ffffff"
     bordercolor="#666666"
     borderopacity="1.0"
     inkscape:pageshadow="2"
     inkscape:pageopacity="0.0"
     inkscape:pagecheckerboard="0"
     inkscape:document-units="mm"
     showgrid="false"
     inkscape:zoom="0.98555367"
     inkscape:cx="306.93407"
     inkscape:cy="336.86648"
     inkscape:window-width="1920"
     inkscape:window-height="1005"
     inkscape:window-x="0"
     inkscape:window-y="0"
     inkscape:window-maximized="1"
     inkscape:current-layer="svg5" />
  <defs
     id="defs2" />
  <g
     id="layer1"
     transform="matrix(1.1081333,0,0,1.1081333,416.76148,80.941935)">
    <g
       id="g35239"
       transform="translate(-606.39981,-213.78563)">
      <path
         id="path32209"
         style="fill:#ffffff;stroke:#cacaca;stroke-width:3.99999;stroke-linecap:round;stroke-linejoin:round;paint-order:fill markers stroke"
         d="m 334.37138,245.57232 c -0.70885,0.50521 -4.23062,-1.5738 -4.98994,-1.1482 -0.75931,0.42561 -0.82377,4.51475 -1.62465,4.85576 -0.80085,0.34101 -3.79337,-2.44647 -4.62644,-2.19404 -0.83304,0.25242 -1.77503,4.2321 -2.63048,4.39298 -0.85549,0.16087 -3.1788,-3.20474 -4.04663,-3.1373 -0.86786,0.0675 -2.64334,3.75158 -3.51338,3.7248 -0.87003,-0.0268 -2.41554,-3.81316 -3.27759,-3.93385 -0.86204,-0.1207 -3.38799,3.09563 -4.23195,2.88244 -0.84393,-0.21319 -1.53935,-4.24327 -2.35529,-4.54646 -0.81596,-0.30319 -3.97425,2.29494 -4.75264,1.90531 -0.77839,-0.38963 -0.59118,-4.47499 -1.32288,-4.9465 -0.73169,-0.4715 -4.3747,1.38694 -5.05113,0.83909 -0.67643,-0.54785 0.38464,-4.49745 -0.22858,-5.11522 -0.61325,-0.61778 -4.57056,0.41408 -5.11341,-0.26637 -0.54284,-0.68046 1.34245,-4.30962 0.87636,-5.04478 -0.46609,-0.73516 -4.55272,-0.57813 -4.93658,-1.35937 -0.38387,-0.78125 2.2375,-3.92028 1.94034,-4.73845 -0.29715,-0.81816 -4.322,-1.54331 -4.52894,-2.38881 -0.20697,-0.84549 3.02794,-3.34762 2.91361,-4.21054 -0.11433,-0.86292 -3.88919,-2.43633 -3.90954,-3.30655 -0.0204,-0.87022 3.67679,-2.61844 3.75062,-3.48576 0.0739,-0.86732 -3.27451,-3.21544 -3.10733,-4.06969 0.16721,-0.85424 4.15374,-1.76682 4.41231,-2.59799 0.25856,-0.83116 -2.50675,-3.84418 -2.15983,-4.64252 0.3469,-0.79833 4.43642,-0.83259 4.86762,-1.58874 0.43119,-0.75614 -1.62176,-4.29318 -1.11132,-4.99827 0.51042,-0.7051 4.51169,0.14057 5.09535,-0.50521 0.58366,-0.64577 -0.66092,-4.54143 -0.0109,-5.12032 0.65006,-0.57888 4.37597,1.10717 5.08483,0.60196 0.70883,-0.50521 0.33081,-4.57734 1.09012,-5.00294 0.75929,-0.42561 4.03566,2.02198 4.83655,1.68097 0.80088,-0.34101 1.30704,-4.39921 2.14011,-4.65164 0.83304,-0.25242 3.50663,2.84227 4.36209,2.68139 0.85548,-0.16088 2.2222,-4.01538 3.09006,-4.08282 0.86783,-0.0674 2.81365,3.52963 3.68369,3.55642 0.87004,0.0268 3.03345,-3.4438 3.89549,-3.3231 0.86204,0.12069 1.98911,4.05197 2.83306,4.26516 0.84393,0.21319 3.70284,-2.71118 4.51878,-2.40799 0.81594,0.30319 1.07156,4.38483 1.84994,4.77446 0.77839,0.38964 4.19908,-1.85179 4.93077,-1.38029 0.7317,0.47151 0.1039,4.51268 0.78033,5.06053 0.67643,0.54785 4.49899,-0.90582 5.11221,-0.28805 0.61325,0.61777 -0.86863,4.4295 -0.32579,5.10996 0.54285,0.68045 4.58855,0.0825 5.05464,0.81766 0.46609,0.73516 -1.80055,4.13922 -1.41665,4.92045 0.38386,0.78124 4.46351,1.06698 4.76066,1.88515 0.29716,0.81816 -2.64825,3.65538 -2.44128,4.50087 0.20694,0.8455 4.12978,2.00156 4.24411,2.86448 0.11433,0.86291 -3.37214,3.00062 -3.35177,3.87084 0.0205,0.87022 3.60298,2.84255 3.52913,3.70987 -0.0739,0.86731 -3.93833,2.20556 -4.10554,3.05981 -0.16718,0.85425 2.90767,3.55062 2.6491,4.38179 -0.25857,0.83116 -4.32039,1.30737 -4.66729,2.1057 -0.34692,0.79834 2.07641,4.09268 1.64521,4.84883 -0.43122,0.75615 -4.50045,0.34805 -5.01086,1.05314 -0.51042,0.7051 1.14807,4.44336 0.5644,5.08913 -0.58369,0.64578 -4.47004,-0.62754 -5.1201,-0.0487 -0.65008,0.57888 0.16602,4.58627 -0.54281,5.09148 z" />
      <path
         id="path32211"
         style="fill:#d6f7ff;fill-opacity:1;stroke:#7acdff;stroke-width:4;stroke-linecap:round;stroke-linejoin:round;stroke-miterlimit:4;stroke-dasharray:none;stroke-opacity:1;paint-order:fill markers stroke"
         d="m 274.40227,217.01609 a 39.616645,39.616645 0 0 0 39.61608,39.6161 39.616645,39.616645 0 0 0 39.61713,-39.6161 z" />
      <path
         style="fill:none;stroke:#7acdff;stroke-width:4;stroke-linecap:round;stroke-linejoin:miter;stroke-miterlimit:4;stroke-dasharray:none;stroke-opacity:1"
         d="M 334.61209,256.63241 H 293.42533"
         id="path32221" />
    </g>
    <path
       style="fill:#f4d7d7;stroke:#444444;stroke-width:4;stroke-linecap:round;stroke-linejoin:miter;stroke-miterlimit:4;stroke-dasharray:none;stroke-opacity:1"
       d="M -279.6408,-15.562331 -263.39182,-38.1484"
       id="path25720" />
    <g
       id="g32712"
       transform="translate(-627.83752,-214.34493)">
      <path
         id="path32207"
         style="fill:#ffd194;fill-opacity:1;stroke:#b88100;stroke-width:4;stroke-linecap:round;stroke-linejoin:round;stroke-miterlimit:4;stroke-dasharray:none;stroke-opacity:1;paint-order:fill markers stroke"
         d="m 292.56889,210.75682 a 11.277858,11.733689 55.28284 0 0 -3.2217,15.95271 11.277858,11.733689 55.28284 0 0 2.35877,2.46156 20.35976,20.35976 0 0 0 2.14656,19.18646 20.35976,20.35976 0 0 0 28.3302,5.13971 20.35976,20.35976 0 0 0 5.14014,-28.3305 20.35976,20.35976 0 0 0 -17.21238,-8.75714 11.277858,11.733689 55.28284 0 0 -1.47379,-3.06532 11.277858,11.733689 55.28284 0 0 -16.0678,-2.58748 z" />
      <path
         id="path32213"
         style="fill:#fcfffe;fill-opacity:1;stroke:#cacaca;stroke-width:4;stroke-linecap:round;stroke-linejoin:round;stroke-miterlimit:4;stroke-dasharray:none;stroke-opacity:1;paint-order:fill markers stroke"
         d="m 281.80139,204.28542 a 5.1650648,5.1650648 0 0 0 -1.30391,7.18718 5.1650648,5.1650648 0 0 0 7.18718,1.3039 5.1650648,5.1650648 0 0 0 7.18716,1.30392 5.1650648,5.1650648 0 0 0 1.3039,-7.18718 5.1650648,5.1650648 0 0 0 1.30393,-7.18717 5.1650648,5.1650648 0 0 0 -7.18719,-1.30391 5.1650648,5.1650648 0 0 0 -1.30391,7.18718 5.1650648,5.1650648 0 0 0 -7.18716,-1.30392 z" />
      <path
         style="fill:none;stroke:#ffffff;stroke-width:4;stroke-linecap:round;stroke-linejoin:miter;stroke-miterlimit:4;stroke-dasharray:none;stroke-opacity:1"
         d="m 308.70729,249.12998 c -5.08147,-0.99136 -9.74837,-4.76555 -10.27163,-10.63783"
         id="path32217" />
    </g>
    <g
       id="g32716"
       transform="matrix(0.69100112,0.32246255,-0.32246255,0.69100112,-464.21767,-250.90032)"
       style="stroke-width:5.24564;stroke-miterlimit:4;stroke-dasharray:none">
      <path
         id="path32215"
         style="fill:#fff7bd;fill-opacity:1;stroke:#68aa81;stroke-width:5.24564;stroke-linecap:round;stroke-linejoin:round;stroke-miterlimit:4;stroke-dasharray:none;stroke-opacity:1;paint-order:fill markers stroke"
         d="m 357.16378,205.00336 c -6.48032,3e-5 -11.6335,5.0501 -11.73363,11.27787 -0.0748,4.64993 -7.41856,12.74533 -7.56751,20.35999 1.5e-4,11.24416 8.05698,20.35932 19.30114,20.35948 11.24437,1.4e-4 19.30153,-9.11511 19.30168,-20.35948 0.24869,-9.60304 -7.56801,-15.13713 -7.56801,-20.35999 0,-6.22859 -5.25334,-11.27786 -11.73367,-11.27787 z" />
      <circle
         style="fill:#8f5900;fill-opacity:1;stroke:#724500;stroke-width:5.24564;stroke-linecap:round;stroke-linejoin:round;stroke-miterlimit:4;stroke-dasharray:none;stroke-opacity:1;paint-order:fill markers stroke"
         id="circle32219"
         cx="357.16406"
         cy="238.78488"
         r="7.7828436" />
    </g>
    <path
       style="fill:#f4d7d7;stroke:#444444;stroke-width:4;stroke-linecap:round;stroke-linejoin:miter;stroke-miterlimit:4;stroke-dasharray:none;stroke-opacity:1"
       d="m -274.83944,-12.061812 18.81766,-20.495251"
       id="path37032" />
  </g>
</svg>
