<?xml version="1.0" encoding="UTF-8" standalone="no"?>
<!-- Created with Inkscape (http://www.inkscape.org/) -->

<svg
   width="205.68709mm"
   height="205.68709mm"
   viewBox="0 0 205.68709 205.68709"
   version="1.1"
   id="svg5"
   xmlns:xlink="http://www.w3.org/1999/xlink"
   xmlns="http://www.w3.org/2000/svg"
   xmlns:svg="http://www.w3.org/2000/svg">
  <defs
     id="defs2">
    <pattern
       xlink:href="#pattern9775"
       id="pattern9782"
       patternTransform="matrix(0.7760694,0,0,0.7760694,-1.9275959e-6,1.2674705e-5)" />
    <pattern
       xlink:href="#pattern9768"
       id="pattern9773"
       patternTransform="matrix(0.29793842,0,0,0.29793842,1.8519316e-6,5.8160064e-6)" />
    <linearGradient
       id="linearGradient3672">
      <stop
         style="stop-color:#ffffff;stop-opacity:1;"
         offset="0"
         id="stop3670" />
    </linearGradient>
    <pattern
       patternUnits="userSpaceOnUse"
       width="39.999996"
       height="39.999994"
       patternTransform="translate(-61.204331,-63.201445)"
       id="pattern9476">
      <path
         id="path8124"
         style="fill:#f2ebe6;fill-opacity:1;fill-rule:evenodd;stroke:none;stroke-width:1.6895;stroke-linecap:round;stroke-linejoin:round;stroke-miterlimit:4;stroke-dasharray:none;paint-order:fill markers stroke"
         d="M 19.999997,0 V 1.0351559 L 21.035153,0 Z m 2.779295,0 -2.779295,2.7792983 V 4.1972674 L 24.195308,0 Z M 25.93945,0 19.999997,5.9394557 V 7.3574249 L 27.355465,0 Z m 3.160158,0 -9.099611,9.1015635 V 10.517579 L 30.517577,0 Z M 32.261715,0 19.999997,12.261721 V 13.67969 L 33.677731,0 Z m 3.160154,0 -15.421872,15.423829 v 1.416019 L 36.837888,0 Z m 3.160158,0 -18.58203,18.583986 v 1.416011 L 39.999996,0 Z m -18.58203,19.999997 v 1.744139 L 1.7441386,39.999994 H 3.1601537 L 19.999997,23.162109 v 1.744139 L 4.9042923,39.999994 H 6.3203074 L 19.999997,26.322266 v 1.744142 L 8.0644498,39.999994 H 9.4824189 L 19.999997,29.482427 v 1.744139 l -8.77344,8.773428 h 1.416016 l 7.357424,-7.355459 v 1.744142 l -5.613282,5.611317 h 1.417969 l 4.195313,-4.195309 v 1.744138 l -2.453128,2.451171 h 1.417969 l 1.035159,-1.033198 v 1.033198 H 39.999996 V 19.999997 H 38.96484 l 1.035156,-1.033201 v -1.41797 l -2.453125,2.451171 h -1.742189 l 4.195314,-4.195309 v -1.416015 l -5.613283,5.611324 h -1.744138 l 7.357421,-7.355463 v -1.417969 l -8.773437,8.773432 H 29.482417 L 39.999996,9.4824227 V 8.0664076 L 28.064452,19.999997 H 26.320309 L 39.999996,6.3222652 V 4.9062501 L 24.904294,19.999997 H 23.160151 L 39.999996,3.1621115 V 1.7441424 L 21.744136,19.999997 Z m 0,0 H 18.582028 L 0,38.583983 v 1.416011 z M 0,19.999997 v 1.03516 l 1.0351483,-1.03516 z m 2.7773405,0 L 0,22.779296 v 1.417973 l 4.1953096,-4.197272 z m 3.1621077,0 L 0,25.939456 v 1.417969 l 7.3554633,-7.357428 z m 3.1601575,0 L 0,29.101568 v 1.416007 L 10.517575,19.999997 Z m 3.1621073,0 L 0,32.261718 v 1.417969 l 13.677732,-13.67969 z m 3.160158,0 L 0,35.423825 v 1.416019 L 16.837886,19.999997 Z" />
    </pattern>
    <pattern
       patternUnits="userSpaceOnUse"
       width="79.999999"
       height="79.999999"
       patternTransform="translate(-218.99805,195.375)"
       id="pattern9768">
      <path
         id="rect9629"
         style="fill:#f4e3d7;fill-opacity:1;fill-rule:evenodd;stroke:none;stroke-width:21.3803;stroke-linecap:round;stroke-linejoin:round;stroke-miterlimit:4;stroke-dasharray:none;paint-order:fill markers stroke"
         d="M 0,0 V 39.999999 H 2.06836 L 0,42.070309 v 3.48828 l 5.5566399,-5.55859 h 2.83399 L 0,48.392579 v 3.48633 l 11.87891,-11.87891 h 2.83398 L 0,54.712889 v 3.48828 l 18.19922,-18.20117 h 2.83399 L 0,61.035159 v 3.48828 l 24.52149,-24.52344 h 2.83398 L 0,67.357419 v 3.48633 l 30.84375,-30.84375 h 2.83399 L 0,73.677729 v 3.48829 l 37.16602,-37.16602 h 2.833979 V 37.16602 L 77.166019,0 h -3.48828 L 39.999999,33.67969 V 30.84375 L 70.843749,0 h -3.48828 L 39.999999,27.35742 V 24.52344 L 64.521489,0 h -3.48828 L 39.999999,21.03516 V 18.20117 L 58.199219,0 h -3.48633 L 39.999999,14.71289 V 11.87891 L 51.878909,0 h -3.48828 l -8.39063,8.3925799 v -2.83399 L 45.556639,0 h -3.48828 l -2.06836,2.07031 V 0 Z m 39.999999,39.999999 h 3.48633 L 79.999999,3.48828 V 0 Z m 0,0 -39.999999,40 h 3.48633 l 36.513669,-36.51172 z m 40,-33.6777291 -33.67773,33.6777291 h 3.48633 l 30.1914,-30.1894491 z m 0,6.3222601 -27.35742,27.355469 h 3.48828 L 79.999999,16.13086 Z m 0,6.32031 -21.03515,21.035159 h 3.48828 L 79.999999,22.45312 Z m 0,6.32227 -14.71289,14.712889 h 3.48633 L 79.999999,28.77539 Z m 0,6.32227 -8.39257,8.390619 h 3.48828 l 4.90429,-4.904299 z m 0,6.32031 -2.07031,2.070309 h 2.07031 z m -40,8.392579 -33.6777291,33.67773 h 3.48633 L 39.999999,49.810549 Z m 0,6.32226 -27.357419,27.35547 h 3.48828 l 23.869139,-23.86914 z m 0,6.32031 -21.035149,21.03516 h 3.48828 l 17.546869,-17.54688 z m 0,6.32227 -14.712889,14.71289 h 3.48633 l 11.226559,-11.22461 z m 0,6.32227 -8.392569,8.39062 h 3.48828 l 4.904289,-4.9043 z m 0,6.32031 -2.070309,2.07031 h 2.070309 z" />
    </pattern>
    <pattern
       patternUnits="userSpaceOnUse"
       width="23.835073"
       height="23.835073"
       patternTransform="translate(-218.99805,195.37499)"
       id="pattern9775">
      <rect
         style="fill:url(#pattern9773);stroke:none;stroke-width:0.297938"
         width="23.835073"
         height="23.835073"
         x="0"
         y="0"
         id="rect9771" />
    </pattern>
    <pattern
       patternUnits="userSpaceOnUse"
       width="18.497671"
       height="18.497671"
       patternTransform="translate(-218.99805,195.37498)"
       id="pattern9784">
      <rect
         style="fill:url(#pattern9782);stroke:none;stroke-width:0.776069"
         width="18.497671"
         height="18.497671"
         x="0"
         y="0"
         id="rect9778" />
    </pattern>
  </defs>
  <g
     id="layer1"
     transform="translate(362.694,187.41158)">
    <rect
       style="fill:#31363b;fill-rule:evenodd;stroke-width:3.25501;stroke-linecap:round;stroke-linejoin:round;paint-order:fill markers stroke;fill-opacity:1"
       id="rect7698"
       width="205.687"
       height="205.68709"
       x="-362.694"
       y="-187.41158"
       ry="21.848751" />
    <path
       id="rect3385-3"
       style="fill:#241f1c;fill-rule:evenodd;stroke-width:3.77809;stroke-linecap:round;stroke-linejoin:round;paint-order:fill markers stroke"
       d="m -299.93437,-85.820991 h 75.05566 c 15.73727,0 28.40663,12.669371 28.40663,28.406649 0,15.737278 -12.66936,28.406645 -28.40663,28.406645 h -75.05566 c -15.73728,0 -28.40663,-12.669367 -28.40663,-28.406645 0,-15.737278 12.66935,-28.406649 28.40663,-28.406649 z" />
    <path
       id="rect3387"
       style="fill:#483e37;fill-rule:evenodd;stroke-width:3.58373;stroke-linecap:round;stroke-linejoin:round;paint-order:fill markers stroke"
       d="m -290.39839,-111.93849 h 55.98368 c 11.51824,0 20.79105,9.27282 20.79105,20.791045 0,11.518235 -9.27281,20.79103 -20.79105,20.79103 h -55.98368 c -11.51824,0 -20.79102,-9.272795 -20.79102,-20.79103 0,-11.518225 9.27278,-20.791045 20.79102,-20.791045 z" />
    <path
       id="rect3389"
       style="fill:#6c5d53;fill-rule:evenodd;stroke-width:3.16891;stroke-linecap:round;stroke-linejoin:round;paint-order:fill markers stroke"
       d="m -274.64727,-141.78405 c 3.10315,19.95392 14.23559,14.35559 25.75801,14.45139 9.8175,0.0816 16.69723,5.85749 16.43856,14.57539 -0.27556,9.2868 -6.41363,15.171489 -15.70449,15.171489 h -26.37061 c -10.57742,0 -16.97841,-7.251039 -19.04286,-15.704499 -3.28901,-13.46761 3.90354,-22.21413 18.92139,-28.49377 z" />
    <path
       id="rect3385"
       style="fill:#ffffff;fill-rule:evenodd;stroke-width:4.05748;stroke-linecap:round;stroke-linejoin:round;paint-order:fill markers stroke"
       d="m -274.71025,-145.07324 c -5.97734,2.68503 -11.90215,6.1277 -15.90557,11.44828 -3.14629,4.0943 -4.52051,9.40137 -4.01578,14.51801 0.14786,1.58441 0.35939,3.20746 0.83138,4.71423 0.38644,0.74583 1.27664,0.0162 1.02962,-0.64247 -0.1788,-5.00753 0.42629,-10.33237 3.39156,-14.52999 3.2172,-4.61949 8.26788,-7.50681 13.28345,-9.80335 0.45583,-0.0722 1.30752,-0.90927 1.46623,-0.3348 1.30703,4.54659 3.23063,9.24101 7.02506,12.27674 3.10599,2.51751 7.26079,3.09931 11.14046,2.96176 5.08915,-0.19529 10.23566,-0.6268 15.17353,0.85969 3.09273,0.89151 6.01752,2.97022 7.14493,6.08624 0.83589,2.25454 1.04641,4.7569 0.65007,7.12504 -0.6243,3.28529 -3.30348,5.71242 -6.1852,7.13965 -5.79135,2.88013 -12.33796,3.650878 -18.74579,4.095886 -5.37443,0.298895 -10.90643,0.346641 -16.28395,-0.114077 -2.024,-0.248057 -3.98474,-0.62125 -5.97971,-1.117959 -0.84002,-0.0601 -0.80664,1.090071 -0.0471,1.186307 5.01947,2.114576 10.53833,2.404735 15.90466,2.740634 7.34897,0.333544 14.72812,-0.0097 22.02436,-0.929825 4.85921,-0.752194 9.79657,-2.898676 12.69775,-7.029646 1.26312,-1.76532 2.10079,-3.81476 2.54707,-5.93365 5.9518,3.02421 10.13547,9.22465 10.65372,15.887738 0.21854,2.772367 -0.22841,5.579677 -1.01526,8.236427 -0.31221,0.950798 -0.66331,1.781075 -1.10343,2.659029 0.075,0.750697 0.67988,0.982286 1.31706,1.182251 2.53091,1.081799 4.91572,2.53878 6.91315,4.198494 5.19331,4.251706 8.72007,10.570139 9.64667,17.156701 1.08804,7.250755 -0.85009,15.003367 -5.42498,20.85237 -2.5551,3.319264 -5.87354,6.022838 -9.54518,7.83341 -3.96918,1.988318 -8.47954,2.951192 -12.90442,2.857519 -24.72548,-0.0069 -49.45119,0.01383 -74.17653,-0.01041 -4.28274,-0.163369 -8.52129,-2.066598 -11.94163,-4.658665 -5.43703,-4.139692 -9.59833,-10.112568 -11.31762,-16.702751 -0.92801,-3.576584 -0.99477,-7.309756 -0.033,-10.858787 1.43622,-5.595558 4.61579,-10.765219 8.6101,-14.981731 2.7194,-2.816538 5.85731,-5.338456 9.50513,-6.835253 0.46189,-0.550691 0.20471,-1.13792 -0.0248,-1.725673 -1.6291,-5.382981 -1.00171,-11.39604 1.76064,-16.301919 2.54602,-4.57688 6.51379,-8.57075 11.49718,-10.38793 0.75418,-0.42252 0.0343,-1.39088 -0.64769,-0.98702 -7.44608,1.89782 -13.68347,7.83638 -15.94303,15.181269 -1.46342,4.620428 -1.42462,9.711853 0.14497,14.30009 -8.83112,3.41879 -15.85794,11.121985 -18.4221,20.241867 -2.58974,8.88722 -0.97999,18.90519 4.38544,26.466683 5.14602,7.440323 13.69655,12.387578 22.71688,13.1114 3.70777,0.250552 7.43007,0.06516 11.14386,0.122273 24.37809,-0.0096 48.75655,0.01908 73.13442,-0.01431 8.73622,-0.195699 17.2827,-4.311789 22.8719,-11.030896 5.70655,-6.69286 8.26428,-15.888807 6.94655,-24.573408 -1.2862,-9.261836 -7.07167,-17.74589 -15.19988,-22.359968 -1.31181,-0.759679 -2.68231,-1.41844 -4.09274,-1.974021 2.5144,-7.285752 1.02788,-15.800585 -3.88272,-21.755139 -3.70475,-4.61505 -9.27331,-7.68222 -15.15982,-8.31761 0.3506,-4.6152 -1.49963,-9.39495 -5.10622,-12.35207 -4.11844,-3.48743 -9.72918,-4.58669 -15.00079,-4.31233 -4.81012,0.11729 -9.59197,1.15178 -14.38632,0.38553 -1.51014,-0.27071 -2.99153,-0.77569 -4.37322,-1.73229 -3.00584,-2.08203 -4.54341,-5.71139 -5.48858,-9.19106 -0.39717,-1.49525 -0.70306,-3.0136 -0.93962,-4.54227 -0.55843,-0.53373 -1.15019,-0.36669 -1.75118,-0.005 -0.17125,0.0737 -0.34251,0.14741 -0.51376,0.22111 z m -17.05761,67.575007 c -3.93767,0.126196 -7.49087,3.296231 -8.06404,7.193529 -0.69212,3.78385 1.51408,7.825967 5.06255,9.302898 3.53473,1.607564 8.04738,0.411305 10.32107,-2.73668 2.4212,-3.111846 2.25191,-7.881104 -0.39408,-10.807098 -1.69906,-1.980684 -4.3197,-3.096397 -6.9255,-2.952649 z m 62.96837,0 c -3.93795,0.125996 -7.49132,3.295791 -8.06403,7.193529 -0.7105,3.853177 1.60191,7.972727 5.25498,9.382233 3.58076,1.529178 8.07894,0.209041 10.26825,-3.009892 2.37429,-3.224756 2.01349,-8.081912 -0.81317,-10.919357 -1.69718,-1.793766 -4.18034,-2.780211 -6.64603,-2.646513 z" />
  </g>
</svg>
