<?xml version="1.0" encoding="UTF-8" standalone="no"?>
<!-- Created with Inkscape (http://www.inkscape.org/) -->

<svg
   width="205.68709mm"
   height="205.68709mm"
   viewBox="0 0 205.68709 205.68709"
   version="1.1"
   id="svg5"
   xmlns:xlink="http://www.w3.org/1999/xlink"
   xmlns="http://www.w3.org/2000/svg"
   xmlns:svg="http://www.w3.org/2000/svg">
   <defs
      id="defs2">
      <pattern
         xlink:href="#pattern9775"
         id="pattern9782"
         patternTransform="matrix(0.7760694,0,0,0.7760694,-1.9275959e-6,1.2674705e-5)" />
      <pattern
         xlink:href="#pattern9768"
         id="pattern9773"
         patternTransform="matrix(0.29793842,0,0,0.29793842,1.8519316e-6,5.8160064e-6)" />
      <linearGradient
         id="linearGradient3672">
         <stop
            style="stop-color:#ffffff;stop-opacity:1;"
            offset="0"
            id="stop3670" />
      </linearGradient>
      <pattern
         patternUnits="userSpaceOnUse"
         width="39.999996"
         height="39.999994"
         patternTransform="translate(-61.204331,-63.201445)"
         id="pattern9476">
         <path
            id="path8124"
            style="fill:#f2ebe6;fill-opacity:1;fill-rule:evenodd;stroke:none;stroke-width:1.6895;stroke-linecap:round;stroke-linejoin:round;stroke-miterlimit:4;stroke-dasharray:none;paint-order:fill markers stroke"
            d="M 19.999997,0 V 1.0351559 L 21.035153,0 Z m 2.779295,0 -2.779295,2.7792983 V 4.1972674 L 24.195308,0 Z M 25.93945,0 19.999997,5.9394557 V 7.3574249 L 27.355465,0 Z m 3.160158,0 -9.099611,9.1015635 V 10.517579 L 30.517577,0 Z M 32.261715,0 19.999997,12.261721 V 13.67969 L 33.677731,0 Z m 3.160154,0 -15.421872,15.423829 v 1.416019 L 36.837888,0 Z m 3.160158,0 -18.58203,18.583986 v 1.416011 L 39.999996,0 Z m -18.58203,19.999997 v 1.744139 L 1.7441386,39.999994 H 3.1601537 L 19.999997,23.162109 v 1.744139 L 4.9042923,39.999994 H 6.3203074 L 19.999997,26.322266 v 1.744142 L 8.0644498,39.999994 H 9.4824189 L 19.999997,29.482427 v 1.744139 l -8.77344,8.773428 h 1.416016 l 7.357424,-7.355459 v 1.744142 l -5.613282,5.611317 h 1.417969 l 4.195313,-4.195309 v 1.744138 l -2.453128,2.451171 h 1.417969 l 1.035159,-1.033198 v 1.033198 H 39.999996 V 19.999997 H 38.96484 l 1.035156,-1.033201 v -1.41797 l -2.453125,2.451171 h -1.742189 l 4.195314,-4.195309 v -1.416015 l -5.613283,5.611324 h -1.744138 l 7.357421,-7.355463 v -1.417969 l -8.773437,8.773432 H 29.482417 L 39.999996,9.4824227 V 8.0664076 L 28.064452,19.999997 H 26.320309 L 39.999996,6.3222652 V 4.9062501 L 24.904294,19.999997 H 23.160151 L 39.999996,3.1621115 V 1.7441424 L 21.744136,19.999997 Z m 0,0 H 18.582028 L 0,38.583983 v 1.416011 z M 0,19.999997 v 1.03516 l 1.0351483,-1.03516 z m 2.7773405,0 L 0,22.779296 v 1.417973 l 4.1953096,-4.197272 z m 3.1621077,0 L 0,25.939456 v 1.417969 l 7.3554633,-7.357428 z m 3.1601575,0 L 0,29.101568 v 1.416007 L 10.517575,19.999997 Z m 3.1621073,0 L 0,32.261718 v 1.417969 l 13.677732,-13.67969 z m 3.160158,0 L 0,35.423825 v 1.416019 L 16.837886,19.999997 Z" />
      </pattern>
      <pattern
         patternUnits="userSpaceOnUse"
         width="79.999999"
         height="79.999999"
         patternTransform="translate(-218.99805,195.375)"
         id="pattern9768">
         <path
            id="rect9629"
            style="fill:#f4e3d7;fill-opacity:1;fill-rule:evenodd;stroke:none;stroke-width:21.3803;stroke-linecap:round;stroke-linejoin:round;stroke-miterlimit:4;stroke-dasharray:none;paint-order:fill markers stroke"
            d="M 0,0 V 39.999999 H 2.06836 L 0,42.070309 v 3.48828 l 5.5566399,-5.55859 h 2.83399 L 0,48.392579 v 3.48633 l 11.87891,-11.87891 h 2.83398 L 0,54.712889 v 3.48828 l 18.19922,-18.20117 h 2.83399 L 0,61.035159 v 3.48828 l 24.52149,-24.52344 h 2.83398 L 0,67.357419 v 3.48633 l 30.84375,-30.84375 h 2.83399 L 0,73.677729 v 3.48829 l 37.16602,-37.16602 h 2.833979 V 37.16602 L 77.166019,0 h -3.48828 L 39.999999,33.67969 V 30.84375 L 70.843749,0 h -3.48828 L 39.999999,27.35742 V 24.52344 L 64.521489,0 h -3.48828 L 39.999999,21.03516 V 18.20117 L 58.199219,0 h -3.48633 L 39.999999,14.71289 V 11.87891 L 51.878909,0 h -3.48828 l -8.39063,8.3925799 v -2.83399 L 45.556639,0 h -3.48828 l -2.06836,2.07031 V 0 Z m 39.999999,39.999999 h 3.48633 L 79.999999,3.48828 V 0 Z m 0,0 -39.999999,40 h 3.48633 l 36.513669,-36.51172 z m 40,-33.6777291 -33.67773,33.6777291 h 3.48633 l 30.1914,-30.1894491 z m 0,6.3222601 -27.35742,27.355469 h 3.48828 L 79.999999,16.13086 Z m 0,6.32031 -21.03515,21.035159 h 3.48828 L 79.999999,22.45312 Z m 0,6.32227 -14.71289,14.712889 h 3.48633 L 79.999999,28.77539 Z m 0,6.32227 -8.39257,8.390619 h 3.48828 l 4.90429,-4.904299 z m 0,6.32031 -2.07031,2.070309 h 2.07031 z m -40,8.392579 -33.6777291,33.67773 h 3.48633 L 39.999999,49.810549 Z m 0,6.32226 -27.357419,27.35547 h 3.48828 l 23.869139,-23.86914 z m 0,6.32031 -21.035149,21.03516 h 3.48828 l 17.546869,-17.54688 z m 0,6.32227 -14.712889,14.71289 h 3.48633 l 11.226559,-11.22461 z m 0,6.32227 -8.392569,8.39062 h 3.48828 l 4.904289,-4.9043 z m 0,6.32031 -2.070309,2.07031 h 2.070309 z" />
      </pattern>
      <pattern
         patternUnits="userSpaceOnUse"
         width="23.835073"
         height="23.835073"
         patternTransform="translate(-218.99805,195.37499)"
         id="pattern9775">
         <rect
            style="fill:url(#pattern9773);stroke:none;stroke-width:0.297938"
            width="23.835073"
            height="23.835073"
            x="0"
            y="0"
            id="rect9771" />
      </pattern>
      <pattern
         patternUnits="userSpaceOnUse"
         width="18.497671"
         height="18.497671"
         patternTransform="translate(-218.99805,195.37498)"
         id="pattern9784">
         <rect
            style="fill:url(#pattern9782);stroke:none;stroke-width:0.776069"
            width="18.497671"
            height="18.497671"
            x="0"
            y="0"
            id="rect9778" />
      </pattern>
   </defs>
   <g
      id="layer1"
      transform="translate(362.694,187.41158)">
      <rect
         style="fill:#241c1c;fill-rule:evenodd;stroke-width:3.25501;stroke-linecap:round;stroke-linejoin:round;paint-order:fill markers stroke"
         id="rect7698"
         width="205.687"
         height="205.68709"
         x="-362.694"
         y="-187.41158"
         ry="21.848751" />
      <path
         id="rect3385"
         style="fill:#ffffff;fill-rule:evenodd;stroke-width:3.82077;stroke-linecap:round;stroke-linejoin:round;paint-order:fill markers stroke"
         d="m -272.22939,-141.59311 c -15.18751,6.35057 -22.46162,15.19586 -19.13547,28.81559 -0.41041,-11.19024 2.69248,-18.28008 17.87999,-24.63066 4.83401,18.46611 15.26855,14.32254 23.53783,14.6146 9.54377,0.0793 15.38139,3.30296 15.61302,11.38312 -6.3e-4,0.32778 0.024,0.68822 0.0172,0.98615 -0.16827,6.34759 -5.9293,9.22695 -11.82,10.885339 -9.54157,2.68622 -25.15406,2.12385 -28.52012,1.62534 -1.82503,-0.27027 -3.46214,-0.59336 -4.9365,-0.97267 2.21437,0.95224 4.71051,1.62937 7.48669,1.99071 8.75692,1.13978 17.66798,0.95325 26.66838,0 8.40995,-0.89071 14.30546,-5.011569 15.60607,-12.672109 6.5262,3.07694 11.02633,9.698299 11.02633,17.41695 -0.21309,3.365841 -0.73169,6.08421 -2.12639,8.819397 2.65058,1.011689 5.08859,2.410937 7.22596,4.106881 6.0593,4.836877 9.93719,12.280296 9.93719,20.671316 0,14.65027 -11.79455,26.444411 -26.44481,26.444411 h -69.87132 c -12.65302,0 -25.4775,-15.499055 -23.50229,-28.696676 1.44522,-9.656438 9.31309,-19.129745 16.75202,-22.743354 0.36337,-0.172029 0.72624,-0.33213 1.08833,-0.472848 -0.93242,-2.562793 -1.34162,-5.423848 -1.13492,-8.422602 0.59888,-8.688425 7.38312,-16.210115 13.61618,-18.343025 -9.16369,2.27094 -15.91831,10.51757 -15.91831,20.4028 0,2.545054 0.45463,4.978428 1.27592,7.23251 -10.89341,4.075857 -18.62135,14.53175 -18.62135,26.881702 0,15.915053 12.81228,28.727328 28.72732,28.727328 h 75.90355 c 15.91505,0 28.72774,-12.812275 28.72774,-28.727328 0,-12.349787 -7.7223,-22.815891 -18.61563,-26.891102 0.82012,-2.250643 1.27019,-4.681703 1.27019,-7.22311 0,-11.00021 -8.36444,-19.97057 -19.10523,-20.93532 0.0228,-0.30555 0.0561,-0.6032 0.0654,-0.91873 0.26159,-8.81638 -6.69571,-14.65755 -16.62411,-14.74006 -11.6526,-0.0969 -22.9106,5.56474 -26.0488,-14.6146 z m -17.26861,64.269063 c -4.18491,1.95e-4 -7.57727,3.392931 -7.57702,7.577848 -3e-5,4.184759 3.39227,7.577245 7.57702,7.577439 4.18508,2.1e-4 7.57788,-3.392363 7.57786,-7.577439 2.1e-4,-4.185236 -3.39261,-7.578105 -7.57786,-7.577848 z m 59.29416,0 c -4.18492,1.98e-4 -7.57729,3.392932 -7.57703,7.577848 -4e-5,4.184756 3.39227,7.577243 7.57703,7.577439 4.18508,2.1e-4 7.57788,-3.392363 7.57784,-7.577439 2.2e-4,-4.185236 -3.3926,-7.578105 -7.57784,-7.577848 z" />
   </g>
</svg>
