<?xml version="1.0" encoding="UTF-8" standalone="no"?>
<!-- Created with Inkscape (http://www.inkscape.org/) -->

<svg
   width="205.68709mm"
   height="205.68709mm"
   viewBox="0 0 205.68709 205.68709"
   version="1.1"
>
  <defs />
  <g
     transform="translate(362.694,187.41158)">
    <path
       id="rect3385"
       style="fill-rule:evenodd;stroke-width:4.05748;stroke-linecap:round;stroke-linejoin:round;paint-order:fill markers stroke"
       d="m -274.71025,-145.07324 c -5.97734,2.68503 -11.90215,6.1277 -15.90557,11.44828 -3.14629,4.0943 -4.52051,9.40137 -4.01578,14.51801 0.14786,1.58441 0.35939,3.20746 0.83138,4.71423 0.38644,0.74583 1.27664,0.0162 1.02962,-0.64247 -0.1788,-5.00753 0.42629,-10.33237 3.39156,-14.52999 3.2172,-4.61949 8.26788,-7.50681 13.28345,-9.80335 0.45583,-0.0722 1.30752,-0.90927 1.46623,-0.3348 1.30703,4.54659 3.23063,9.24101 7.02506,12.27674 3.10599,2.51751 7.26079,3.09931 11.14046,2.96176 5.08915,-0.19529 10.23566,-0.6268 15.17353,0.85969 3.09273,0.89151 6.01752,2.97022 7.14493,6.08624 0.83589,2.25454 1.04641,4.7569 0.65007,7.12504 -0.6243,3.28529 -3.30348,5.71242 -6.1852,7.13965 -5.79135,2.88013 -12.33796,3.650878 -18.74579,4.095886 -5.37443,0.298895 -10.90643,0.346641 -16.28395,-0.114077 -2.024,-0.248057 -3.98474,-0.62125 -5.97971,-1.117959 -0.84002,-0.0601 -0.80664,1.090071 -0.0471,1.186307 5.01947,2.114576 10.53833,2.404735 15.90466,2.740634 7.34897,0.333544 14.72812,-0.0097 22.02436,-0.929825 4.85921,-0.752194 9.79657,-2.898676 12.69775,-7.029646 1.26312,-1.76532 2.10079,-3.81476 2.54707,-5.93365 5.9518,3.02421 10.13547,9.22465 10.65372,15.887738 0.21854,2.772367 -0.22841,5.579677 -1.01526,8.236427 -0.31221,0.950798 -0.66331,1.781075 -1.10343,2.659029 0.075,0.750697 0.67988,0.982286 1.31706,1.182251 2.53091,1.081799 4.91572,2.53878 6.91315,4.198494 5.19331,4.251706 8.72007,10.570139 9.64667,17.156701 1.08804,7.250755 -0.85009,15.003367 -5.42498,20.85237 -2.5551,3.319264 -5.87354,6.022838 -9.54518,7.83341 -3.96918,1.988318 -8.47954,2.951192 -12.90442,2.857519 -24.72548,-0.0069 -49.45119,0.01383 -74.17653,-0.01041 -4.28274,-0.163369 -8.52129,-2.066598 -11.94163,-4.658665 -5.43703,-4.139692 -9.59833,-10.112568 -11.31762,-16.702751 -0.92801,-3.576584 -0.99477,-7.309756 -0.033,-10.858787 1.43622,-5.595558 4.61579,-10.765219 8.6101,-14.981731 2.7194,-2.816538 5.85731,-5.338456 9.50513,-6.835253 0.46189,-0.550691 0.20471,-1.13792 -0.0248,-1.725673 -1.6291,-5.382981 -1.00171,-11.39604 1.76064,-16.301919 2.54602,-4.57688 6.51379,-8.57075 11.49718,-10.38793 0.75418,-0.42252 0.0343,-1.39088 -0.64769,-0.98702 -7.44608,1.89782 -13.68347,7.83638 -15.94303,15.181269 -1.46342,4.620428 -1.42462,9.711853 0.14497,14.30009 -8.83112,3.41879 -15.85794,11.121985 -18.4221,20.241867 -2.58974,8.88722 -0.97999,18.90519 4.38544,26.466683 5.14602,7.440323 13.69655,12.387578 22.71688,13.1114 3.70777,0.250552 7.43007,0.06516 11.14386,0.122273 24.37809,-0.0096 48.75655,0.01908 73.13442,-0.01431 8.73622,-0.195699 17.2827,-4.311789 22.8719,-11.030896 5.70655,-6.69286 8.26428,-15.888807 6.94655,-24.573408 -1.2862,-9.261836 -7.07167,-17.74589 -15.19988,-22.359968 -1.31181,-0.759679 -2.68231,-1.41844 -4.09274,-1.974021 2.5144,-7.285752 1.02788,-15.800585 -3.88272,-21.755139 -3.70475,-4.61505 -9.27331,-7.68222 -15.15982,-8.31761 0.3506,-4.6152 -1.49963,-9.39495 -5.10622,-12.35207 -4.11844,-3.48743 -9.72918,-4.58669 -15.00079,-4.31233 -4.81012,0.11729 -9.59197,1.15178 -14.38632,0.38553 -1.51014,-0.27071 -2.99153,-0.77569 -4.37322,-1.73229 -3.00584,-2.08203 -4.54341,-5.71139 -5.48858,-9.19106 -0.39717,-1.49525 -0.70306,-3.0136 -0.93962,-4.54227 -0.55843,-0.53373 -1.15019,-0.36669 -1.75118,-0.005 -0.17125,0.0737 -0.34251,0.14741 -0.51376,0.22111 z m -17.05761,67.575007 c -3.93767,0.126196 -7.49087,3.296231 -8.06404,7.193529 -0.69212,3.78385 1.51408,7.825967 5.06255,9.302898 3.53473,1.607564 8.04738,0.411305 10.32107,-2.73668 2.4212,-3.111846 2.25191,-7.881104 -0.39408,-10.807098 -1.69906,-1.980684 -4.3197,-3.096397 -6.9255,-2.952649 z m 62.96837,0 c -3.93795,0.125996 -7.49132,3.295791 -8.06403,7.193529 -0.7105,3.853177 1.60191,7.972727 5.25498,9.382233 3.58076,1.529178 8.07894,0.209041 10.26825,-3.009892 2.37429,-3.224756 2.01349,-8.081912 -0.81317,-10.919357 -1.69718,-1.793766 -4.18034,-2.780211 -6.64603,-2.646513 z" />
  </g>
</svg>
