<?xml version="1.0" encoding="UTF-8" standalone="no"?>
<!-- Created with Inkscape (http://www.inkscape.org/) -->

<svg
   width="205.68709mm"
   height="205.68709mm"
   viewBox="0 0 205.68709 205.68709"
   version="1.1"
   id="svg5"
   xmlns:xlink="http://www.w3.org/1999/xlink"
   xmlns="http://www.w3.org/2000/svg"
   xmlns:svg="http://www.w3.org/2000/svg">
  <defs
     id="defs2">
    <pattern
       xlink:href="#pattern9775"
       id="pattern9782"
       patternTransform="matrix(0.7760694,0,0,0.7760694,-1.9275959e-6,1.2674705e-5)" />
    <pattern
       xlink:href="#pattern9768"
       id="pattern9773"
       patternTransform="matrix(0.29793842,0,0,0.29793842,1.8519316e-6,5.8160064e-6)" />
    <linearGradient
       id="linearGradient3672">
      <stop
         style="stop-color:#ffffff;stop-opacity:1;"
         offset="0"
         id="stop3670" />
    </linearGradient>
    <pattern
       patternUnits="userSpaceOnUse"
       width="39.999996"
       height="39.999994"
       patternTransform="translate(-61.204331,-63.201445)"
       id="pattern9476">
      <path
         id="path8124"
         style="fill:#f2ebe6;fill-opacity:1;fill-rule:evenodd;stroke:none;stroke-width:1.6895;stroke-linecap:round;stroke-linejoin:round;stroke-miterlimit:4;stroke-dasharray:none;paint-order:fill markers stroke"
         d="M 19.999997,0 V 1.0351559 L 21.035153,0 Z m 2.779295,0 -2.779295,2.7792983 V 4.1972674 L 24.195308,0 Z M 25.93945,0 19.999997,5.9394557 V 7.3574249 L 27.355465,0 Z m 3.160158,0 -9.099611,9.1015635 V 10.517579 L 30.517577,0 Z M 32.261715,0 19.999997,12.261721 V 13.67969 L 33.677731,0 Z m 3.160154,0 -15.421872,15.423829 v 1.416019 L 36.837888,0 Z m 3.160158,0 -18.58203,18.583986 v 1.416011 L 39.999996,0 Z m -18.58203,19.999997 v 1.744139 L 1.7441386,39.999994 H 3.1601537 L 19.999997,23.162109 v 1.744139 L 4.9042923,39.999994 H 6.3203074 L 19.999997,26.322266 v 1.744142 L 8.0644498,39.999994 H 9.4824189 L 19.999997,29.482427 v 1.744139 l -8.77344,8.773428 h 1.416016 l 7.357424,-7.355459 v 1.744142 l -5.613282,5.611317 h 1.417969 l 4.195313,-4.195309 v 1.744138 l -2.453128,2.451171 h 1.417969 l 1.035159,-1.033198 v 1.033198 H 39.999996 V 19.999997 H 38.96484 l 1.035156,-1.033201 v -1.41797 l -2.453125,2.451171 h -1.742189 l 4.195314,-4.195309 v -1.416015 l -5.613283,5.611324 h -1.744138 l 7.357421,-7.355463 v -1.417969 l -8.773437,8.773432 H 29.482417 L 39.999996,9.4824227 V 8.0664076 L 28.064452,19.999997 H 26.320309 L 39.999996,6.3222652 V 4.9062501 L 24.904294,19.999997 H 23.160151 L 39.999996,3.1621115 V 1.7441424 L 21.744136,19.999997 Z m 0,0 H 18.582028 L 0,38.583983 v 1.416011 z M 0,19.999997 v 1.03516 l 1.0351483,-1.03516 z m 2.7773405,0 L 0,22.779296 v 1.417973 l 4.1953096,-4.197272 z m 3.1621077,0 L 0,25.939456 v 1.417969 l 7.3554633,-7.357428 z m 3.1601575,0 L 0,29.101568 v 1.416007 L 10.517575,19.999997 Z m 3.1621073,0 L 0,32.261718 v 1.417969 l 13.677732,-13.67969 z m 3.160158,0 L 0,35.423825 v 1.416019 L 16.837886,19.999997 Z" />
    </pattern>
    <pattern
       patternUnits="userSpaceOnUse"
       width="79.999999"
       height="79.999999"
       patternTransform="translate(-218.99805,195.375)"
       id="pattern9768">
      <path
         id="rect9629"
         style="fill:#f4e3d7;fill-opacity:1;fill-rule:evenodd;stroke:none;stroke-width:21.3803;stroke-linecap:round;stroke-linejoin:round;stroke-miterlimit:4;stroke-dasharray:none;paint-order:fill markers stroke"
         d="M 0,0 V 39.999999 H 2.06836 L 0,42.070309 v 3.48828 l 5.5566399,-5.55859 h 2.83399 L 0,48.392579 v 3.48633 l 11.87891,-11.87891 h 2.83398 L 0,54.712889 v 3.48828 l 18.19922,-18.20117 h 2.83399 L 0,61.035159 v 3.48828 l 24.52149,-24.52344 h 2.83398 L 0,67.357419 v 3.48633 l 30.84375,-30.84375 h 2.83399 L 0,73.677729 v 3.48829 l 37.16602,-37.16602 h 2.833979 V 37.16602 L 77.166019,0 h -3.48828 L 39.999999,33.67969 V 30.84375 L 70.843749,0 h -3.48828 L 39.999999,27.35742 V 24.52344 L 64.521489,0 h -3.48828 L 39.999999,21.03516 V 18.20117 L 58.199219,0 h -3.48633 L 39.999999,14.71289 V 11.87891 L 51.878909,0 h -3.48828 l -8.39063,8.3925799 v -2.83399 L 45.556639,0 h -3.48828 l -2.06836,2.07031 V 0 Z m 39.999999,39.999999 h 3.48633 L 79.999999,3.48828 V 0 Z m 0,0 -39.999999,40 h 3.48633 l 36.513669,-36.51172 z m 40,-33.6777291 -33.67773,33.6777291 h 3.48633 l 30.1914,-30.1894491 z m 0,6.3222601 -27.35742,27.355469 h 3.48828 L 79.999999,16.13086 Z m 0,6.32031 -21.03515,21.035159 h 3.48828 L 79.999999,22.45312 Z m 0,6.32227 -14.71289,14.712889 h 3.48633 L 79.999999,28.77539 Z m 0,6.32227 -8.39257,8.390619 h 3.48828 l 4.90429,-4.904299 z m 0,6.32031 -2.07031,2.070309 h 2.07031 z m -40,8.392579 -33.6777291,33.67773 h 3.48633 L 39.999999,49.810549 Z m 0,6.32226 -27.357419,27.35547 h 3.48828 l 23.869139,-23.86914 z m 0,6.32031 -21.035149,21.03516 h 3.48828 l 17.546869,-17.54688 z m 0,6.32227 -14.712889,14.71289 h 3.48633 l 11.226559,-11.22461 z m 0,6.32227 -8.392569,8.39062 h 3.48828 l 4.904289,-4.9043 z m 0,6.32031 -2.070309,2.07031 h 2.070309 z" />
    </pattern>
    <pattern
       patternUnits="userSpaceOnUse"
       width="23.835073"
       height="23.835073"
       patternTransform="translate(-218.99805,195.37499)"
       id="pattern9775">
      <rect
         style="fill:url(#pattern9773);stroke:none;stroke-width:0.297938"
         width="23.835073"
         height="23.835073"
         x="0"
         y="0"
         id="rect9771" />
    </pattern>
    <pattern
       patternUnits="userSpaceOnUse"
       width="18.497671"
       height="18.497671"
       patternTransform="translate(-218.99805,195.37498)"
       id="pattern9784">
      <rect
         style="fill:url(#pattern9782);stroke:none;stroke-width:0.776069"
         width="18.497671"
         height="18.497671"
         x="0"
         y="0"
         id="rect9778" />
    </pattern>
  </defs>
  <g
     id="layer1"
     transform="translate(362.694,187.41158)">
    <rect
       style="fill:#241c1c;fill-rule:evenodd;stroke-width:3.25501;stroke-linecap:round;stroke-linejoin:round;paint-order:fill markers stroke"
       id="rect7698"
       width="205.68709"
       height="205.68709"
       x="-362.694"
       y="-187.41158"
       ry="16.649382" />
    <path
       id="rect3385"
       style="fill:#ffffff;fill-rule:evenodd;stroke-width:4.14272;stroke-linecap:round;stroke-linejoin:round;paint-order:fill markers stroke"
       d="m -273.27242,-146.39823 c -16.46726,6.88569 -24.35431,16.47632 -20.74789,31.24369 -0.44499,-12.13317 2.91936,-19.82042 19.38662,-26.70612 5.24134,20.02212 16.55512,15.5294 25.5212,15.84607 10.34796,0.086 16.67747,3.58128 16.92862,12.3423 -6.8e-4,0.3554 0.026,0.74621 0.0186,1.06925 -0.18245,6.88245 -6.42893,10.00444 -12.81599,11.80257 -10.34558,2.91257 -27.27363,2.30281 -30.92332,1.7623 -1.97881,-0.29305 -3.75387,-0.64336 -5.35247,-1.05463 2.40096,1.03248 5.10744,1.76666 8.11755,2.15845 9.4948,1.23582 19.15674,1.03357 28.91554,0 9.1186,-0.96576 15.51088,-5.43386 16.92109,-13.7399 7.07612,3.33621 11.95544,10.51551 11.95544,18.884556 -0.23105,3.649458 -0.79334,6.596885 -2.30557,9.562548 2.87393,1.096937 5.51737,2.61409 7.83485,4.45294 6.56987,5.244447 10.77453,13.315073 10.77453,22.413147 0,15.884748 -12.7884,28.672701 -28.67314,28.672701 h -75.7589 c -13.7192,0 -27.62431,-16.805054 -25.48267,-31.114749 1.567,-10.470121 10.09784,-20.741679 18.1636,-24.659782 0.39399,-0.186524 0.78744,-0.360116 1.18004,-0.512692 -1.01099,-2.778742 -1.45467,-5.880878 -1.23055,-9.132317 0.64934,-9.420542 8.00524,-17.576032 14.76352,-19.888672 -9.93585,2.4623 -17.25964,11.40382 -17.25964,22.12201 0,2.759509 0.49294,5.397927 1.38343,7.841945 -11.81132,4.419302 -20.19044,15.756241 -20.19044,29.14684 0,17.256106 13.89188,31.147984 31.14798,31.147984 h 82.29942 c 17.2561,0 31.14843,-13.891878 31.14843,-31.147984 0,-13.39042 -8.373,-24.738431 -20.18424,-29.157032 0.88923,-2.44029 1.37722,-5.076198 1.37722,-7.831753 0,-11.92712 -9.06925,-21.65336 -20.7151,-22.6994 0.0247,-0.33129 0.0608,-0.65403 0.0709,-0.99614 0.28364,-9.55928 -7.25991,-15.89264 -18.02491,-15.98211 -12.63448,-0.10505 -24.84112,6.03365 -28.24375,-15.84607 z m -18.72372,69.684585 c -4.53755,2.11e-4 -8.21576,3.67883 -8.21548,8.216381 -4e-5,4.53738 3.67811,8.215728 8.21548,8.215938 4.53773,2.28e-4 8.21642,-3.678214 8.21639,-8.215938 2.3e-4,-4.537897 -3.67848,-8.21666 -8.21639,-8.216381 z m 64.29047,0 c -4.53755,2.14e-4 -8.21577,3.678831 -8.21549,8.216381 -4e-5,4.537377 3.67811,8.215726 8.21549,8.215938 4.53773,2.28e-4 8.21642,-3.678214 8.21638,-8.215938 2.3e-4,-4.537897 -3.67848,-8.21666 -8.21638,-8.216381 z" />
  </g>
</svg>
