<?xml version="1.0" encoding="UTF-8" standalone="no"?>
<!-- Created with Inkscape (http://www.inkscape.org/) -->

<svg
   width="95.25mm"
   height="95.25mm"
   viewBox="0 0 95.25 95.25"
   version="1.1"
   id="svg5"
   sodipodi:docname="icon_maskable.svg"
   inkscape:export-filename="/media/data/Projects/fewdie/src/icons/icon_maskable.png"
   inkscape:export-xdpi="138.59801"
   inkscape:export-ydpi="138.59801"
   inkscape:version="1.1.1 (3bf5ae0d25, 2021-09-20, custom)"
   xmlns:inkscape="http://www.inkscape.org/namespaces/inkscape"
   xmlns:sodipodi="http://sodipodi.sourceforge.net/DTD/sodipodi-0.dtd"
   xmlns:xlink="http://www.w3.org/1999/xlink"
   xmlns="http://www.w3.org/2000/svg"
   xmlns:svg="http://www.w3.org/2000/svg">
  <sodipodi:namedview
     id="namedview35"
     pagecolor="#ffffff"
     bordercolor="#666666"
     borderopacity="1.0"
     inkscape:pageshadow="2"
     inkscape:pageopacity="0.0"
     inkscape:pagecheckerboard="0"
     inkscape:document-units="mm"
     showgrid="false"
     inkscape:zoom="0.61282588"
     inkscape:cx="-219.47507"
     inkscape:cy="86.484599"
     inkscape:window-width="1920"
     inkscape:window-height="1005"
     inkscape:window-x="0"
     inkscape:window-y="0"
     inkscape:window-maximized="1"
     inkscape:current-layer="svg5" />
  <defs
     id="defs2">
    <pattern
       xlink:href="#pattern9775"
       id="pattern9782"
       patternTransform="matrix(0.7760694,0,0,0.7760694,-1.9275959e-6,1.2674705e-5)" />
    <pattern
       xlink:href="#pattern9768"
       id="pattern9773"
       patternTransform="matrix(0.29793842,0,0,0.29793842,1.8519316e-6,5.8160064e-6)" />
    <linearGradient
       id="linearGradient3672">
      <stop
         style="stop-color:#ffffff;stop-opacity:1;"
         offset="0"
         id="stop3670" />
    </linearGradient>
    <linearGradient
       id="linearGradient1534">
      <stop
         style="stop-color:#ffffff;stop-opacity:1;"
         offset="0"
         id="stop1532" />
    </linearGradient>
    <pattern
       patternUnits="userSpaceOnUse"
       width="39.999996"
       height="39.999994"
       patternTransform="translate(-61.204331,-63.201445)"
       id="pattern9476">
      <path
         id="path8124"
         style="fill:#f2ebe6;fill-opacity:1;fill-rule:evenodd;stroke:none;stroke-width:1.6895;stroke-linecap:round;stroke-linejoin:round;stroke-miterlimit:4;stroke-dasharray:none;paint-order:fill markers stroke"
         d="M 19.999997,0 V 1.0351559 L 21.035153,0 Z m 2.779295,0 -2.779295,2.7792983 V 4.1972674 L 24.195308,0 Z M 25.93945,0 19.999997,5.9394557 V 7.3574249 L 27.355465,0 Z m 3.160158,0 -9.099611,9.1015635 V 10.517579 L 30.517577,0 Z M 32.261715,0 19.999997,12.261721 V 13.67969 L 33.677731,0 Z m 3.160154,0 -15.421872,15.423829 v 1.416019 L 36.837888,0 Z m 3.160158,0 -18.58203,18.583986 v 1.416011 L 39.999996,0 Z m -18.58203,19.999997 v 1.744139 L 1.7441386,39.999994 H 3.1601537 L 19.999997,23.162109 v 1.744139 L 4.9042923,39.999994 H 6.3203074 L 19.999997,26.322266 v 1.744142 L 8.0644498,39.999994 H 9.4824189 L 19.999997,29.482427 v 1.744139 l -8.77344,8.773428 h 1.416016 l 7.357424,-7.355459 v 1.744142 l -5.613282,5.611317 h 1.417969 l 4.195313,-4.195309 v 1.744138 l -2.453128,2.451171 h 1.417969 l 1.035159,-1.033198 v 1.033198 H 39.999996 V 19.999997 H 38.96484 l 1.035156,-1.033201 v -1.41797 l -2.453125,2.451171 h -1.742189 l 4.195314,-4.195309 v -1.416015 l -5.613283,5.611324 h -1.744138 l 7.357421,-7.355463 v -1.417969 l -8.773437,8.773432 H 29.482417 L 39.999996,9.4824227 V 8.0664076 L 28.064452,19.999997 H 26.320309 L 39.999996,6.3222652 V 4.9062501 L 24.904294,19.999997 H 23.160151 L 39.999996,3.1621115 V 1.7441424 L 21.744136,19.999997 Z m 0,0 H 18.582028 L 0,38.583983 v 1.416011 z M 0,19.999997 v 1.03516 l 1.0351483,-1.03516 z m 2.7773405,0 L 0,22.779296 v 1.417973 l 4.1953096,-4.197272 z m 3.1621077,0 L 0,25.939456 v 1.417969 l 7.3554633,-7.357428 z m 3.1601575,0 L 0,29.101568 v 1.416007 L 10.517575,19.999997 Z m 3.1621073,0 L 0,32.261718 v 1.417969 l 13.677732,-13.67969 z m 3.160158,0 L 0,35.423825 v 1.416019 L 16.837886,19.999997 Z" />
    </pattern>
    <pattern
       patternUnits="userSpaceOnUse"
       width="79.999999"
       height="79.999999"
       patternTransform="translate(-218.99805,195.375)"
       id="pattern9768">
      <path
         id="rect9629"
         style="fill:#f4e3d7;fill-opacity:1;fill-rule:evenodd;stroke:none;stroke-width:21.3803;stroke-linecap:round;stroke-linejoin:round;stroke-miterlimit:4;stroke-dasharray:none;paint-order:fill markers stroke"
         d="M 0,0 V 39.999999 H 2.06836 L 0,42.070309 v 3.48828 l 5.5566399,-5.55859 h 2.83399 L 0,48.392579 v 3.48633 l 11.87891,-11.87891 h 2.83398 L 0,54.712889 v 3.48828 l 18.19922,-18.20117 h 2.83399 L 0,61.035159 v 3.48828 l 24.52149,-24.52344 h 2.83398 L 0,67.357419 v 3.48633 l 30.84375,-30.84375 h 2.83399 L 0,73.677729 v 3.48829 l 37.16602,-37.16602 h 2.833979 V 37.16602 L 77.166019,0 h -3.48828 L 39.999999,33.67969 V 30.84375 L 70.843749,0 h -3.48828 L 39.999999,27.35742 V 24.52344 L 64.521489,0 h -3.48828 L 39.999999,21.03516 V 18.20117 L 58.199219,0 h -3.48633 L 39.999999,14.71289 V 11.87891 L 51.878909,0 h -3.48828 l -8.39063,8.3925799 v -2.83399 L 45.556639,0 h -3.48828 l -2.06836,2.07031 V 0 Z m 39.999999,39.999999 h 3.48633 L 79.999999,3.48828 V 0 Z m 0,0 -39.999999,40 h 3.48633 l 36.513669,-36.51172 z m 40,-33.6777291 -33.67773,33.6777291 h 3.48633 l 30.1914,-30.1894491 z m 0,6.3222601 -27.35742,27.355469 h 3.48828 L 79.999999,16.13086 Z m 0,6.32031 -21.03515,21.035159 h 3.48828 L 79.999999,22.45312 Z m 0,6.32227 -14.71289,14.712889 h 3.48633 L 79.999999,28.77539 Z m 0,6.32227 -8.39257,8.390619 h 3.48828 l 4.90429,-4.904299 z m 0,6.32031 -2.07031,2.070309 h 2.07031 z m -40,8.392579 -33.6777291,33.67773 h 3.48633 L 39.999999,49.810549 Z m 0,6.32226 -27.357419,27.35547 h 3.48828 l 23.869139,-23.86914 z m 0,6.32031 -21.035149,21.03516 h 3.48828 l 17.546869,-17.54688 z m 0,6.32227 -14.712889,14.71289 h 3.48633 l 11.226559,-11.22461 z m 0,6.32227 -8.392569,8.39062 h 3.48828 l 4.904289,-4.9043 z m 0,6.32031 -2.070309,2.07031 h 2.070309 z" />
    </pattern>
    <pattern
       patternUnits="userSpaceOnUse"
       width="23.835073"
       height="23.835073"
       patternTransform="translate(-218.99805,195.37499)"
       id="pattern9775">
      <rect
         style="fill:url(#pattern9773);stroke:none;stroke-width:0.297938"
         width="23.835073"
         height="23.835073"
         x="0"
         y="0"
         id="rect9771" />
    </pattern>
    <pattern
       patternUnits="userSpaceOnUse"
       width="18.497671"
       height="18.497671"
       patternTransform="translate(-218.99805,195.37498)"
       id="pattern9784">
      <rect
         style="fill:url(#pattern9782);stroke:none;stroke-width:0.776069"
         width="18.497671"
         height="18.497671"
         x="0"
         y="0"
         id="rect9778" />
    </pattern>
  </defs>
  <path
     id="path16043"
     style="fill:#7c5252;fill-opacity:1;stroke:none;stroke-width:2.52028;stroke-linecap:round;stroke-linejoin:round;stroke-opacity:1;paint-order:fill markers stroke"
     d="m 69.945753,20.726358 a 1.2601449,1.2601449 0 0 0 -0.197405,0.01654 1.2601449,1.2601449 0 0 0 -0.820106,0.50798 l -5.021397,6.980452 c -0.24488,-0.06693 -0.453297,-0.05281 -0.61495,-0.03772 -0.249706,0.02331 -0.440555,0.07635 -0.627353,0.135393 -0.3736,0.1181 -0.722416,0.272338 -1.053682,0.415995 -0.127778,0.05545 -0.206005,0.08277 -0.322461,0.131775 -0.03062,-0.1227 -0.05609,-0.201289 -0.08837,-0.336931 -0.08352,-0.351284 -0.168304,-0.72207 -0.297656,-1.091923 -0.06468,-0.184926 -0.136176,-0.370601 -0.267168,-0.58446 -0.130985,-0.213859 -0.326523,-0.516719 -0.813388,-0.697632 -0.486867,-0.180912 -0.831881,-0.07896 -1.070734,-0.0026 -0.238855,0.07643 -0.414719,0.170376 -0.584462,0.268201 -0.339476,0.195644 -0.646316,0.421004 -0.938959,0.632519 -0.112921,0.08162 -0.183573,0.12552 -0.286805,0.198438 -0.05633,-0.113463 -0.09786,-0.185796 -0.158647,-0.311609 -0.157083,-0.325117 -0.319709,-0.669637 -0.52555,-1.003039 -0.102915,-0.166705 -0.213672,-0.332443 -0.387572,-0.513147 -0.1739,-0.180699 -0.42975,-0.433379 -0.944129,-0.505396 -0.514379,-0.07202 -0.82909,0.101381 -1.045929,0.227377 -0.216848,0.125995 -0.368401,0.255547 -0.513149,0.387573 -0.289481,0.264057 -0.541012,0.550112 -0.781346,0.819588 -0.0927,0.103943 -0.152602,0.161394 -0.237713,0.254765 -0.07931,-0.09854 -0.134924,-0.15964 -0.221175,-0.269235 -0.223298,-0.283753 -0.456981,-0.585261 -0.729671,-0.866613 -0.136342,-0.140683 -0.279151,-0.277941 -0.487826,-0.417029 -0.208666,-0.139095 -0.513119,-0.331673 -1.030943,-0.291455 -0.517819,0.04026 -0.788892,0.277342 -0.973585,0.447001 -0.184687,0.169666 -0.304051,0.328285 -0.417028,0.488342 -0.225952,0.320115 -0.41026,0.653576 -0.587044,0.968417 -0.06825,0.121553 -0.114144,0.190676 -0.177253,0.30024 -0.09867,-0.07921 -0.166563,-0.126443 -0.274402,-0.214974 -0.279077,-0.229113 -0.571852,-0.473205 -0.898652,-0.689364 -0.163396,-0.108082 -0.332158,-0.211841 -0.565856,-0.302824 -0.233701,-0.09098 -0.572627,-0.213153 -1.069703,-0.06253 -0.497064,0.150618 -0.709792,0.439518 -0.853694,0.644922 -0.143896,0.205397 -0.226893,0.386286 -0.302823,0.56689 -0.151855,0.361201 -0.26039,0.726799 -0.365353,1.072286 -0.04051,0.133336 -0.07046,0.21019 -0.108521,0.330729 -0.113223,-0.05608 -0.18954,-0.08824 -0.313677,-0.151412 -0.321802,-0.163762 -0.660667,-0.338704 -1.026292,-0.479557 -0.182817,-0.07043 -0.370256,-0.136566 -0.618051,-0.175183 -0.247801,-0.03862 -0.605256,-0.08498 -1.058333,0.168982 -0.453073,0.25395 -0.598673,0.582894 -0.695048,0.81442 -0.09638,0.231527 -0.1383,0.426389 -0.173632,0.619084 -0.07066,0.385396 -0.09836,0.764507 -0.126609,1.124479 -0.0109,0.139044 -0.02334,0.22127 -0.03462,0.347266 -0.122825,-0.0305 -0.204452,-0.04504 -0.339513,-0.0801 -0.349483,-0.09076 -0.716447,-0.189601 -1.10381,-0.248563 -0.193678,-0.02949 -0.392036,-0.05225 -0.642337,-0.03669 -0.250304,0.01556 -0.608955,0.04579 -0.996839,0.391191 -0.387879,0.345437 -0.458983,0.698338 -0.503328,0.945162 -0.04436,0.246831 -0.04414,0.445522 -0.03721,0.641305 0.01386,0.39157 0.06854,0.768406 0.11834,1.126029 0.01928,0.138326 0.02469,0.221138 0.04082,0.346749 -0.126259,-0.0032 -0.209172,-5.31e-4 -0.348298,-0.0062 -0.360823,-0.01348 -0.741251,-0.03075 -1.132231,-0.0052 -0.195493,0.01285 -0.393994,0.03174 -0.635103,0.100769 -0.24111,0.06901 -0.583753,0.177689 -0.888318,0.598413 -0.304569,0.420718 -0.300162,0.780346 -0.290422,1.030945 0.0098,0.250599 0.05297,0.444342 0.101804,0.63407 0.0977,0.379448 0.232605,0.73579 0.358116,1.074353 0.04852,0.130897 0.07202,0.210523 0.114723,0.329695 -0.124283,0.02394 -0.204769,0.04386 -0.342098,0.06873 -0.355291,0.06437 -0.730076,0.12961 -1.106393,0.238745 -0.188153,0.05456 -0.377258,0.115912 -0.597897,0.235128 -0.220639,0.119222 -0.533008,0.298774 -0.740005,0.775146 -0.207005,0.47636 -0.124862,0.825511 -0.06149,1.068152 0.06339,0.242647 0.147672,0.423625 0.23616,0.598413 0.176982,0.349577 0.385476,0.668371 0.580845,0.972034 0.0027,0.0041 0.0041,0.0063 0.0067,0.01033 -0.222083,-0.05447 -0.446156,-0.101882 -0.672311,-0.138493 h -5.16e-4 c -0.532958,-0.08621 -1.075682,-0.122044 -1.620057,-0.107487 1.031245,-1.493529 1.147617,-3.499242 0.05788,-5.072041 -0.70575,-1.018581 -1.766367,-1.656739 -2.905766,-1.863452 -1.139399,-0.206709 -2.356934,0.01822 -3.375504,0.723986 -1.054391,0.730556 -1.679371,1.843445 -1.861902,3.028239 -1.173339,-0.245199 -2.434375,-0.05249 -3.488676,0.677995 -2.037149,1.411494 -2.550965,4.245157 -1.139465,6.282303 1.089599,1.572577 3.007756,2.168207 4.768183,1.727544 -1.032068,2.542138 -0.838219,5.496888 0.807704,7.872389 a 1.2602701,1.2602701 0 0 0 0,0.0016 c 0.313521,0.451969 0.738227,0.806259 1.135848,1.184939 -1.394571,4.187529 -0.828675,8.797801 1.701705,12.454019 a 1.2602701,1.2602701 0 0 0 0.001,0 c 3.140872,4.532958 8.488104,6.65035 13.610021,5.913853 a 1.2601441,1.2601441 0 0 0 0.664041,0.195337 h 9.629386 c 1.488252,0.331676 2.983092,0.316031 4.4049,0 H 64.66132 A 1.2601441,1.2601441 0 0 0 65.921708,73.020324 1.2601441,1.2601441 0 0 0 64.66132,71.760452 H 62.901738 C 71.767362,67.551479 77.907394,58.513659 77.907539,48.058541 a 1.2602701,1.2602701 0 0 0 -1.259872,-1.259872 h -2.689756 c 0.08588,-0.08286 0.173016,-0.163277 0.255796,-0.252698 0.133099,-0.143759 0.263597,-0.293624 0.391192,-0.50953 0.12759,-0.215908 0.301802,-0.530002 0.233577,-1.044897 -0.06822,-0.51489 -0.318754,-0.773549 -0.49816,-0.94878 -0.179414,-0.175229 -0.344628,-0.286012 -0.510564,-0.390158 -0.331872,-0.208295 -0.674436,-0.3733 -0.99839,-0.532783 -0.125428,-0.06175 -0.196958,-0.104 -0.310057,-0.161232 0.07376,-0.102806 0.117941,-0.172778 0.200504,-0.285252 0.213664,-0.291074 0.442121,-0.596284 0.640271,-0.93431 0.09908,-0.169017 0.193627,-0.34359 0.271819,-0.581877 0.0782,-0.238287 0.182362,-0.583583 0.0052,-1.071769 -0.177303,-0.488193 -0.47906,-0.685988 -0.691949,-0.818555 -0.212887,-0.132567 -0.397428,-0.20474 -0.581875,-0.270785 -0.36889,-0.132075 -0.739714,-0.220329 -1.090374,-0.306441 -0.135176,-0.0332 -0.213593,-0.05798 -0.335896,-0.0894 0.04996,-0.116349 0.07785,-0.194764 0.134358,-0.322461 0.146103,-0.330202 0.302384,-0.677346 0.42323,-1.050065 0.06043,-0.186356 0.114903,-0.377831 0.140044,-0.627352 0.02514,-0.249527 0.05333,-0.608825 -0.224793,-1.047481 -0.278106,-0.438656 -0.614185,-0.565874 -0.850593,-0.649573 -0.236411,-0.0837 -0.433544,-0.115716 -0.627869,-0.14056 -0.38866,-0.04971 -0.768673,-0.05641 -1.129647,-0.06511 -0.139864,-0.0031 -0.222589,-0.01155 -0.349332,-0.01602 0.02375,-0.124313 0.0348,-0.206343 0.06253,-0.343131 0.02885,-0.142369 0.05803,-0.289937 0.08578,-0.438216 l 6.921026,-7.538042 a 1.2601449,1.2601449 0 0 0 -0.07596,-1.779219 1.2601449,1.2601449 0 0 0 -0.906404,-0.332279 1.2601449,1.2601449 0 0 0 -0.874882,0.406176 l -6.029089,6.567558 c -0.127162,-0.03802 -0.246489,-0.06002 -0.345718,-0.07235 -0.248878,-0.03094 -0.447209,-0.01849 -0.642337,-10e-4 -0.390247,0.03503 -0.764386,0.110746 -1.118793,0.179833 -0.136739,0.02665 -0.218832,0.0361 -0.343133,0.05891 -0.0038,-0.126399 -0.01162,-0.208909 -0.01395,-0.3483 -0.0014,-0.08 -0.0041,-0.164153 -0.0057,-0.245979 l 5.807397,-8.071859 a 1.2601449,1.2601449 0 0 0 -0.287321,-1.760099 1.2601449,1.2601449 0 0 0 -0.742072,-0.237195 z" />
  <path
     id="path852"
     style="fill:#a60000;fill-opacity:1;stroke:none;stroke-width:2.52028;stroke-linecap:round;stroke-linejoin:round;stroke-opacity:1;paint-order:fill markers stroke"
     d="m 69.329355,20.730042 c -0.371668,0.02761 -0.712049,0.218334 -0.929658,0.520899 l -5.980512,8.31267 c -0.825567,0.28362 -2.046142,0.969002 -2.400372,0.791683 -0.490434,-0.245496 -0.651719,-2.817053 -1.16582,-3.008085 -0.514101,-0.191032 -2.315118,1.651545 -2.846856,1.517219 -0.531749,-0.134324 -1.241756,-2.611649 -1.784903,-2.68769 -0.543147,-0.07605 -1.906442,2.110819 -2.454629,2.093928 -0.548191,-0.01688 -1.774511,-2.283158 -2.321306,-2.24069 -0.546815,0.04249 -1.407637,2.471086 -1.946651,2.572454 -0.539001,0.101367 -2.223794,-1.848861 -2.748672,-1.68982 -0.524893,0.159052 -0.843624,2.716226 -1.348237,2.931088 -0.504618,0.214861 -2.568951,-1.327533 -3.04736,-1.059367 -0.478419,0.268157 -0.240164,2.833944 -0.686778,3.152261 -0.446633,0.318321 -2.794355,-0.74404 -3.203938,-0.379304 -0.409527,0.364742 0.374465,2.819279 0.0067,3.22616 -0.367747,0.40689 -2.88854,-0.125936 -3.210141,0.318326 -0.321615,0.444259 0.971896,2.673257 0.700217,3.149679 -0.271688,0.47643 -2.848425,0.497967 -3.066997,1.000972 -0.218583,0.503012 1.523553,2.401196 1.360641,2.924886 -0.07225,0.232236 -0.609246,0.474605 -1.190625,0.719336 -1.301578,-0.506825 -2.738806,-0.623184 -4.136181,-0.334862 -0.08572,-0.442894 -0.262573,-0.863131 -0.519348,-1.234035 1.477518,-1.023787 1.845175,-3.051577 0.821137,-4.52892 -1.023758,-1.477196 -3.051159,-1.844826 -4.528405,-0.82114 -1.47737,1.023596 -1.845238,3.051024 -0.821655,4.528404 -1.023597,-1.477372 -3.051027,-1.845238 -4.528408,-0.821652 -1.477195,1.02376 -1.844823,3.051159 -0.821137,4.528404 1.023597,1.47737 3.051025,1.845239 4.528405,0.821656 0.257609,0.370107 0.589322,0.682641 0.974101,0.917773 -1.559751,2.460771 -1.530962,5.544635 0.07338,7.86102 0.410096,0.591116 0.911214,1.114014 1.486215,1.550807 -1.6098,4.000717 -1.101696,8.542581 1.35237,12.08867 2.692288,3.879712 7.298454,5.96651 11.990482,5.432226 -0.0069,0.04434 -0.01135,0.08902 -0.01344,0.133842 1.51e-4,0.696553 0.565386,1.260864 1.261938,1.259872 h 25.94932 c 0.696352,7.94e-4 1.261272,-0.56352 1.261422,-1.259872 -1.5e-4,-0.696351 -0.56507,-1.260578 -1.261422,-1.259872 H 58.946007 C 69.187319,68.395413 76.11248,58.837602 76.118603,48.058089 h -4.86637 c -0.179583,-0.178729 -0.300421,-0.339143 -0.30334,-0.463021 -0.01283,-0.548302 2.183538,-1.895433 2.111497,-2.439128 -0.07203,-0.5437 -2.54335,-1.271815 -2.673736,-1.80454 -0.130408,-0.53272 1.72512,-2.320504 1.53789,-2.836003 -0.187227,-0.515506 -2.757439,-0.695285 -2.9993,-1.187524 -0.241885,-0.492231 1.186121,-2.637382 0.892452,-3.100586 -0.293671,-0.463203 -2.842783,-0.08648 -3.184818,-0.515215 -0.03242,-0.04063 -0.05031,-0.103531 -0.06201,-0.176215 l 8.424291,-9.173602 c 0.471225,-0.512749 0.437205,-1.310515 -0.07596,-1.781285 -0.51289,-0.471094 -1.310664,-0.436841 -1.781289,0.07648 l -7.138064,7.775235 c -0.865333,0.121724 -2.090465,0.478097 -2.3828,0.241329 -0.06059,-0.04907 -0.103196,-0.146039 -0.135393,-0.271301 l 6.96495,-9.681062 c 0.405461,-0.564788 0.276889,-1.351251 -0.287322,-1.757516 -0.240503,-0.1732 -0.53436,-0.256087 -0.829924,-0.234094 z"
     sodipodi:nodetypes="cccssssccssssscssssscccccccccccccccccccccccscscsscccccscccc" />
  <path
     id="path2472"
     style="fill:#ffffff;stroke-width:2.52028;stroke-linecap:round;stroke-linejoin:round;paint-order:fill markers stroke"
     d="m 68.957031,15.726562 c -1.835511,0.13692 -3.544716,1.08357 -4.630859,2.59375 l -3.298828,4.585938 c -0.170215,-0.08215 -0.227364,-0.18799 -0.425782,-0.261719 -1.393986,-0.517983 -2.300007,-0.360776 -2.978515,-0.177734 -0.51014,-0.483721 -1.232887,-1.053384 -2.707031,-1.259766 -1.47277,-0.206213 -2.3235,0.141756 -2.947266,0.466797 -0.601993,-0.362382 -1.42904,-0.76167 -2.912109,-0.646484 -1.481903,0.11515 -2.238381,0.637067 -2.777344,1.08789 -0.666072,-0.224583 -1.560572,-0.437279 -2.984375,-0.0059 -1.423865,0.431457 -2.05104,1.105415 -2.480469,1.662109 -0.698319,-0.07588 -1.616994,-0.09034 -2.914062,0.636719 -1.295097,0.72591 -1.762358,1.516683 -2.0625,2.152344 -0.699041,0.07568 -1.601397,0.258255 -2.712891,1.248047 -1.110534,0.989088 -1.394755,1.86343 -1.550781,2.548828 -0.628092,0.211474 -1.406954,0.61023 -2.232422,1.666016 -2.765944,-1.964936 -6.582702,-2.190167 -9.498047,-0.169922 -0.946844,0.656021 -1.700938,1.493022 -2.275391,2.427734 -1.078173,0.208997 -2.126029,0.620402 -3.074218,1.277344 -3.706146,2.568519 -4.659603,7.80339 -2.089844,11.511718 0.889015,1.283127 2.147868,2.102281 3.501953,2.69336 -0.02215,2.418528 0.640386,4.836049 2.074219,6.90625 a 5.0183317,5.0183317 0 0 0 0.002,0.002 c 0.02483,0.03579 0.06463,0.05825 0.08984,0.09375 -0.905185,4.669919 -0.0143,9.557061 2.74414,13.542969 a 5.0183317,5.0183317 0 0 0 0.0039,0.0059 c 3.119329,4.495097 8.124597,7.117383 13.47461,7.482422 1.087731,0.891506 2.415484,1.502109 3.896484,1.5 h 25.935547 c 3.409851,0.0039 6.284422,-2.86437 6.285156,-6.275391 a 5.0183317,5.0183317 0 0 0 0,-0.002 5.0183317,5.0183317 0 0 0 0,-0.002 c -1.36e-4,-0.632565 -0.19015,-1.214504 -0.373047,-1.794922 6.833873,-5.579295 11.092443,-13.983595 11.097657,-23.162109 a 5.0183317,5.0183317 0 0 0 -3.492188,-4.714844 c -0.266437,-0.69394 -0.536066,-1.226668 -0.849609,-1.5625 0.18815,-0.677021 0.353804,-1.581517 -0.154297,-2.980469 -0.506862,-1.395581 -1.212573,-1.983856 -1.791016,-2.382812 0.02817,-0.511776 -0.121195,-1.17702 -0.449218,-1.992188 l 4.291015,-4.671875 c 2.307094,-2.510393 2.133127,-6.566233 -0.376953,-8.871093 -0.934329,-0.85819 -2.096244,-1.258893 -3.287109,-1.4375 C 74.594603,18.464804 74.00528,17.55034 73.091797,16.892578 71.896274,16.031614 70.43299,15.617347 68.958984,15.726562 Z" />
  <g
     id="layer1"
     transform="matrix(0.63007204,0,0,0.63007204,235.37834,46.022666)">
    <g
       id="g35239"
       transform="translate(-606.39981,-213.78563)">
      <path
         id="path32209"
         style="fill:#ffffff;stroke:#7d7d7d;stroke-width:3.99999;stroke-linecap:round;stroke-linejoin:round;stroke-opacity:1;paint-order:fill markers stroke"
         d="m 334.37138,245.57232 c -0.70885,0.50521 -4.23062,-1.5738 -4.98994,-1.1482 -0.75931,0.42561 -0.82377,4.51475 -1.62465,4.85576 -0.80085,0.34101 -3.79337,-2.44647 -4.62644,-2.19404 -0.83304,0.25242 -1.77503,4.2321 -2.63048,4.39298 -0.85549,0.16087 -3.1788,-3.20474 -4.04663,-3.1373 -0.86786,0.0675 -2.64334,3.75158 -3.51338,3.7248 -0.87003,-0.0268 -2.41554,-3.81316 -3.27759,-3.93385 -0.86204,-0.1207 -3.38799,3.09563 -4.23195,2.88244 -0.84393,-0.21319 -1.53935,-4.24327 -2.35529,-4.54646 -0.81596,-0.30319 -3.97425,2.29494 -4.75264,1.90531 -0.77839,-0.38963 -0.59118,-4.47499 -1.32288,-4.9465 -0.73169,-0.4715 -4.3747,1.38694 -5.05113,0.83909 -0.67643,-0.54785 0.38464,-4.49745 -0.22858,-5.11522 -0.61325,-0.61778 -4.57056,0.41408 -5.11341,-0.26637 -0.54284,-0.68046 1.34245,-4.30962 0.87636,-5.04478 -0.46609,-0.73516 -4.55272,-0.57813 -4.93658,-1.35937 -0.38387,-0.78125 2.2375,-3.92028 1.94034,-4.73845 -0.29715,-0.81816 -4.322,-1.54331 -4.52894,-2.38881 -0.20697,-0.84549 3.02794,-3.34762 2.91361,-4.21054 -0.11433,-0.86292 -3.88919,-2.43633 -3.90954,-3.30655 -0.0204,-0.87022 3.67679,-2.61844 3.75062,-3.48576 0.0739,-0.86732 -3.27451,-3.21544 -3.10733,-4.06969 0.16721,-0.85424 4.15374,-1.76682 4.41231,-2.59799 0.25856,-0.83116 -2.50675,-3.84418 -2.15983,-4.64252 0.3469,-0.79833 4.43642,-0.83259 4.86762,-1.58874 0.43119,-0.75614 -1.62176,-4.29318 -1.11132,-4.99827 0.51042,-0.7051 4.51169,0.14057 5.09535,-0.50521 0.58366,-0.64577 -0.66092,-4.54143 -0.0109,-5.12032 0.65006,-0.57888 4.37597,1.10717 5.08483,0.60196 0.70883,-0.50521 0.33081,-4.57734 1.09012,-5.00294 0.75929,-0.42561 4.03566,2.02198 4.83655,1.68097 0.80088,-0.34101 1.30704,-4.39921 2.14011,-4.65164 0.83304,-0.25242 3.50663,2.84227 4.36209,2.68139 0.85548,-0.16088 2.2222,-4.01538 3.09006,-4.08282 0.86783,-0.0674 2.81365,3.52963 3.68369,3.55642 0.87004,0.0268 3.03345,-3.4438 3.89549,-3.3231 0.86204,0.12069 1.98911,4.05197 2.83306,4.26516 0.84393,0.21319 3.70284,-2.71118 4.51878,-2.40799 0.81594,0.30319 1.07156,4.38483 1.84994,4.77446 0.77839,0.38964 4.19908,-1.85179 4.93077,-1.38029 0.7317,0.47151 0.1039,4.51268 0.78033,5.06053 0.67643,0.54785 4.49899,-0.90582 5.11221,-0.28805 0.61325,0.61777 -0.86863,4.4295 -0.32579,5.10996 0.54285,0.68045 4.58855,0.0825 5.05464,0.81766 0.46609,0.73516 -1.80055,4.13922 -1.41665,4.92045 0.38386,0.78124 4.46351,1.06698 4.76066,1.88515 0.29716,0.81816 -2.64825,3.65538 -2.44128,4.50087 0.20694,0.8455 4.12978,2.00156 4.24411,2.86448 0.11433,0.86291 -3.37214,3.00062 -3.35177,3.87084 0.0205,0.87022 3.60298,2.84255 3.52913,3.70987 -0.0739,0.86731 -3.93833,2.20556 -4.10554,3.05981 -0.16718,0.85425 2.90767,3.55062 2.6491,4.38179 -0.25857,0.83116 -4.32039,1.30737 -4.66729,2.1057 -0.34692,0.79834 2.07641,4.09268 1.64521,4.84883 -0.43122,0.75615 -4.50045,0.34805 -5.01086,1.05314 -0.51042,0.7051 1.14807,4.44336 0.5644,5.08913 -0.58369,0.64578 -4.47004,-0.62754 -5.1201,-0.0487 -0.65008,0.57888 0.16602,4.58627 -0.54281,5.09148 z" />
      <path
         id="path32211"
         style="fill:#d6f7ff;fill-opacity:1;stroke:#33b2ff;stroke-width:4;stroke-linecap:round;stroke-linejoin:round;stroke-miterlimit:4;stroke-dasharray:none;stroke-opacity:1;paint-order:fill markers stroke"
         d="m 274.40227,217.01609 a 39.616645,39.616645 0 0 0 39.61608,39.6161 39.616645,39.616645 0 0 0 39.61713,-39.6161 z" />
      <path
         style="fill:none;stroke:#33b2ff;stroke-width:4;stroke-linecap:round;stroke-linejoin:miter;stroke-miterlimit:4;stroke-dasharray:none;stroke-opacity:1"
         d="M 334.61209,256.63241 H 293.42533"
         id="path32221" />
    </g>
    <path
       style="fill:#f4d7d7;stroke:#444444;stroke-width:4;stroke-linecap:round;stroke-linejoin:miter;stroke-miterlimit:4;stroke-dasharray:none;stroke-opacity:1"
       d="M -279.6408,-15.562331 -263.39182,-38.1484"
       id="path25720" />
    <g
       id="g32712"
       transform="translate(-627.83752,-214.34493)">
      <path
         id="path32207"
         style="fill:#ffd194;fill-opacity:1;stroke:#896101;stroke-width:4;stroke-linecap:round;stroke-linejoin:round;stroke-miterlimit:4;stroke-dasharray:none;stroke-opacity:1;paint-order:fill markers stroke"
         d="m 292.56889,210.75682 a 11.277858,11.733689 55.28284 0 0 -3.2217,15.95271 11.277858,11.733689 55.28284 0 0 2.35877,2.46156 20.35976,20.35976 0 0 0 2.14656,19.18646 20.35976,20.35976 0 0 0 28.3302,5.13971 20.35976,20.35976 0 0 0 5.14014,-28.3305 20.35976,20.35976 0 0 0 -17.21238,-8.75714 11.277858,11.733689 55.28284 0 0 -1.47379,-3.06532 11.277858,11.733689 55.28284 0 0 -16.0678,-2.58748 z" />
      <path
         id="path32213"
         style="fill:#ffffff;fill-opacity:1;stroke:#7d7d7d;stroke-width:4;stroke-linecap:round;stroke-linejoin:round;stroke-miterlimit:4;stroke-dasharray:none;stroke-opacity:1;paint-order:fill markers stroke"
         d="m 281.80139,204.28542 a 5.1650648,5.1650648 0 0 0 -1.30391,7.18718 5.1650648,5.1650648 0 0 0 7.18718,1.3039 5.1650648,5.1650648 0 0 0 7.18716,1.30392 5.1650648,5.1650648 0 0 0 1.3039,-7.18718 5.1650648,5.1650648 0 0 0 1.30393,-7.18717 5.1650648,5.1650648 0 0 0 -7.18719,-1.30391 5.1650648,5.1650648 0 0 0 -1.30391,7.18718 5.1650648,5.1650648 0 0 0 -7.18716,-1.30392 z" />
      <path
         style="fill:none;stroke:#ffffff;stroke-width:4;stroke-linecap:round;stroke-linejoin:miter;stroke-miterlimit:4;stroke-dasharray:none;stroke-opacity:1"
         d="m 308.70729,249.12998 c -5.08147,-0.99136 -9.74837,-4.76555 -10.27163,-10.63783"
         id="path32217" />
    </g>
    <g
       id="g32716"
       transform="matrix(0.69100112,0.32246255,-0.32246255,0.69100112,-464.21767,-250.90032)"
       style="stroke-width:5.24564;stroke-miterlimit:4;stroke-dasharray:none">
      <path
         id="path32215"
         style="fill:#fff7bd;fill-opacity:1;stroke:#68aa81;stroke-width:5.24564;stroke-linecap:round;stroke-linejoin:round;stroke-miterlimit:4;stroke-dasharray:none;stroke-opacity:1;paint-order:fill markers stroke"
         d="m 357.16378,205.00336 c -6.48032,3e-5 -11.6335,5.0501 -11.73363,11.27787 -0.0748,4.64993 -7.41856,12.74533 -7.56751,20.35999 1.5e-4,11.24416 8.05698,20.35932 19.30114,20.35948 11.24437,1.4e-4 19.30153,-9.11511 19.30168,-20.35948 0.24869,-9.60304 -7.56801,-15.13713 -7.56801,-20.35999 0,-6.22859 -5.25334,-11.27786 -11.73367,-11.27787 z" />
      <circle
         style="fill:#8f5900;fill-opacity:1;stroke:#724500;stroke-width:5.24564;stroke-linecap:round;stroke-linejoin:round;stroke-miterlimit:4;stroke-dasharray:none;stroke-opacity:1;paint-order:fill markers stroke"
         id="circle32219"
         cx="357.16406"
         cy="238.78488"
         r="7.7828436" />
    </g>
    <path
       style="fill:#f4d7d7;stroke:#444444;stroke-width:4;stroke-linecap:round;stroke-linejoin:miter;stroke-miterlimit:4;stroke-dasharray:none;stroke-opacity:1"
       d="m -274.83944,-12.061812 18.81766,-20.495251"
       id="path37032" />
  </g>
  <g
     id="g16113"
     transform="matrix(0.63007204,0,0,0.63007204,-289.52297,-103.80041)" />
</svg>
