<?xml version="1.0" encoding="UTF-8" standalone="no"?>
<!-- Created with Inkscape (http://www.inkscape.org/) -->

<svg
   width="205.68709mm"
   height="205.68709mm"
   viewBox="0 0 205.68709 205.68709"
   version="1.1"
   id="svg5"
   inkscape:version="1.1.2 (0a00cf5339, 2022-02-04, custom)"
   sodipodi:docname="icon.svg"
   xmlns:inkscape="http://www.inkscape.org/namespaces/inkscape"
   xmlns:sodipodi="http://sodipodi.sourceforge.net/DTD/sodipodi-0.dtd"
   xmlns:xlink="http://www.w3.org/1999/xlink"
   xmlns="http://www.w3.org/2000/svg"
   xmlns:svg="http://www.w3.org/2000/svg">
  <sodipodi:namedview
     id="namedview7"
     pagecolor="#ffffff"
     bordercolor="#666666"
     borderopacity="1.0"
     inkscape:pageshadow="2"
     inkscape:pageopacity="0.0"
     inkscape:pagecheckerboard="0"
     inkscape:document-units="mm"
     showgrid="false"
     inkscape:snap-bbox="true"
     inkscape:bbox-paths="true"
     inkscape:snap-smooth-nodes="false"
     inkscape:snap-midpoints="false"
     inkscape:snap-global="false"
     inkscape:snap-bbox-midpoints="true"
     inkscape:object-nodes="false"
     inkscape:snap-others="false"
     inkscape:zoom="0.39685475"
     inkscape:rotation="-1"
     inkscape:cx="283.51188"
     inkscape:cy="298.42313"
     inkscape:window-width="1920"
     inkscape:window-height="1005"
     inkscape:window-x="0"
     inkscape:window-y="0"
     inkscape:window-maximized="1"
     inkscape:current-layer="layer1" />
  <defs
     id="defs2">
    <pattern
       xlink:href="#pattern9775"
       id="pattern9782"
       patternTransform="matrix(0.7760694,0,0,0.7760694,-1.9275959e-6,1.2674705e-5)" />
    <pattern
       xlink:href="#pattern9768"
       id="pattern9773"
       patternTransform="matrix(0.29793842,0,0,0.29793842,1.8519316e-6,5.8160064e-6)" />
    <linearGradient
       id="linearGradient3672">
      <stop
         style="stop-color:#ffffff;stop-opacity:1;"
         offset="0"
         id="stop3670" />
    </linearGradient>
    <pattern
       patternUnits="userSpaceOnUse"
       width="39.999996"
       height="39.999994"
       patternTransform="translate(-61.204331,-63.201445)"
       id="pattern9476">
      <path
         id="path8124"
         style="fill:#f2ebe6;fill-opacity:1;fill-rule:evenodd;stroke:none;stroke-width:1.6895;stroke-linecap:round;stroke-linejoin:round;stroke-miterlimit:4;stroke-dasharray:none;paint-order:fill markers stroke"
         d="M 19.999997,0 V 1.0351559 L 21.035153,0 Z m 2.779295,0 -2.779295,2.7792983 V 4.1972674 L 24.195308,0 Z M 25.93945,0 19.999997,5.9394557 V 7.3574249 L 27.355465,0 Z m 3.160158,0 -9.099611,9.1015635 V 10.517579 L 30.517577,0 Z M 32.261715,0 19.999997,12.261721 V 13.67969 L 33.677731,0 Z m 3.160154,0 -15.421872,15.423829 v 1.416019 L 36.837888,0 Z m 3.160158,0 -18.58203,18.583986 v 1.416011 L 39.999996,0 Z m -18.58203,19.999997 v 1.744139 L 1.7441386,39.999994 H 3.1601537 L 19.999997,23.162109 v 1.744139 L 4.9042923,39.999994 H 6.3203074 L 19.999997,26.322266 v 1.744142 L 8.0644498,39.999994 H 9.4824189 L 19.999997,29.482427 v 1.744139 l -8.77344,8.773428 h 1.416016 l 7.357424,-7.355459 v 1.744142 l -5.613282,5.611317 h 1.417969 l 4.195313,-4.195309 v 1.744138 l -2.453128,2.451171 h 1.417969 l 1.035159,-1.033198 v 1.033198 H 39.999996 V 19.999997 H 38.96484 l 1.035156,-1.033201 v -1.41797 l -2.453125,2.451171 h -1.742189 l 4.195314,-4.195309 v -1.416015 l -5.613283,5.611324 h -1.744138 l 7.357421,-7.355463 v -1.417969 l -8.773437,8.773432 H 29.482417 L 39.999996,9.4824227 V 8.0664076 L 28.064452,19.999997 H 26.320309 L 39.999996,6.3222652 V 4.9062501 L 24.904294,19.999997 H 23.160151 L 39.999996,3.1621115 V 1.7441424 L 21.744136,19.999997 Z m 0,0 H 18.582028 L 0,38.583983 v 1.416011 z M 0,19.999997 v 1.03516 l 1.0351483,-1.03516 z m 2.7773405,0 L 0,22.779296 v 1.417973 l 4.1953096,-4.197272 z m 3.1621077,0 L 0,25.939456 v 1.417969 l 7.3554633,-7.357428 z m 3.1601575,0 L 0,29.101568 v 1.416007 L 10.517575,19.999997 Z m 3.1621073,0 L 0,32.261718 v 1.417969 l 13.677732,-13.67969 z m 3.160158,0 L 0,35.423825 v 1.416019 L 16.837886,19.999997 Z" />
    </pattern>
    <pattern
       patternUnits="userSpaceOnUse"
       width="79.999999"
       height="79.999999"
       patternTransform="translate(-218.99805,195.375)"
       id="pattern9768">
      <path
         id="rect9629"
         style="fill:#f4e3d7;fill-opacity:1;fill-rule:evenodd;stroke:none;stroke-width:21.3803;stroke-linecap:round;stroke-linejoin:round;stroke-miterlimit:4;stroke-dasharray:none;paint-order:fill markers stroke"
         d="M 0,0 V 39.999999 H 2.06836 L 0,42.070309 v 3.48828 l 5.5566399,-5.55859 h 2.83399 L 0,48.392579 v 3.48633 l 11.87891,-11.87891 h 2.83398 L 0,54.712889 v 3.48828 l 18.19922,-18.20117 h 2.83399 L 0,61.035159 v 3.48828 l 24.52149,-24.52344 h 2.83398 L 0,67.357419 v 3.48633 l 30.84375,-30.84375 h 2.83399 L 0,73.677729 v 3.48829 l 37.16602,-37.16602 h 2.833979 V 37.16602 L 77.166019,0 h -3.48828 L 39.999999,33.67969 V 30.84375 L 70.843749,0 h -3.48828 L 39.999999,27.35742 V 24.52344 L 64.521489,0 h -3.48828 L 39.999999,21.03516 V 18.20117 L 58.199219,0 h -3.48633 L 39.999999,14.71289 V 11.87891 L 51.878909,0 h -3.48828 l -8.39063,8.3925799 v -2.83399 L 45.556639,0 h -3.48828 l -2.06836,2.07031 V 0 Z m 39.999999,39.999999 h 3.48633 L 79.999999,3.48828 V 0 Z m 0,0 -39.999999,40 h 3.48633 l 36.513669,-36.51172 z m 40,-33.6777291 -33.67773,33.6777291 h 3.48633 l 30.1914,-30.1894491 z m 0,6.3222601 -27.35742,27.355469 h 3.48828 L 79.999999,16.13086 Z m 0,6.32031 -21.03515,21.035159 h 3.48828 L 79.999999,22.45312 Z m 0,6.32227 -14.71289,14.712889 h 3.48633 L 79.999999,28.77539 Z m 0,6.32227 -8.39257,8.390619 h 3.48828 l 4.90429,-4.904299 z m 0,6.32031 -2.07031,2.070309 h 2.07031 z m -40,8.392579 -33.6777291,33.67773 h 3.48633 L 39.999999,49.810549 Z m 0,6.32226 -27.357419,27.35547 h 3.48828 l 23.869139,-23.86914 z m 0,6.32031 -21.035149,21.03516 h 3.48828 l 17.546869,-17.54688 z m 0,6.32227 -14.712889,14.71289 h 3.48633 l 11.226559,-11.22461 z m 0,6.32227 -8.392569,8.39062 h 3.48828 l 4.904289,-4.9043 z m 0,6.32031 -2.070309,2.07031 h 2.070309 z" />
    </pattern>
    <pattern
       patternUnits="userSpaceOnUse"
       width="23.835073"
       height="23.835073"
       patternTransform="translate(-218.99805,195.37499)"
       id="pattern9775">
      <rect
         style="fill:url(#pattern9773);stroke:none;stroke-width:0.297938"
         width="23.835073"
         height="23.835073"
         x="0"
         y="0"
         id="rect9771" />
    </pattern>
    <pattern
       patternUnits="userSpaceOnUse"
       width="18.497671"
       height="18.497671"
       patternTransform="translate(-218.99805,195.37498)"
       id="pattern9784">
      <rect
         style="fill:url(#pattern9782);stroke:none;stroke-width:0.776069"
         width="18.497671"
         height="18.497671"
         x="0"
         y="0"
         id="rect9778" />
    </pattern>
  </defs>
  <g
     inkscape:label="Слой 1"
     inkscape:groupmode="layer"
     id="layer1"
     transform="translate(362.694,187.41158)">
    <path
       id="rect3385"
       style="fill:#241f1c;fill-rule:evenodd;stroke-width:5.7238;stroke-linecap:round;stroke-linejoin:round;paint-order:fill markers stroke"
       d="m -316.70511,-85.212088 h 113.70932 c 23.84198,0 43.03606,19.194091 43.03606,43.036073 0,23.841981 -19.19408,43.03607317 -43.03606,43.03607317 h -113.70932 c -23.84198,0 -43.03607,-19.19409217 -43.03607,-43.03607317 0,-23.841982 19.19409,-43.036073 43.03607,-43.036073 z" />
    <path
       id="rect3387"
       style="fill:#483e37;fill-rule:evenodd;stroke-width:5.42934;stroke-linecap:round;stroke-linejoin:round;paint-order:fill markers stroke"
       d="m -302.2581,-124.7801 h 84.81529 c 17.45012,0 31.49842,14.04831 31.49842,31.498431 0,17.45013 -14.0483,31.498421 -31.49842,31.498421 h -84.81529 c -17.45014,0 -31.49842,-14.048291 -31.49842,-31.498421 0,-17.450121 14.04828,-31.498431 31.49842,-31.498431 z" />
    <path
       id="rect3389"
       style="fill:#6c5d53;fill-rule:evenodd;stroke-width:4.80089;stroke-linecap:round;stroke-linejoin:round;paint-order:fill markers stroke"
       d="m -278.39515,-169.99613 c 4.70127,30.2302 21.5669,21.74873 39.02339,21.89386 14.8735,0.12362 25.2963,8.8741 24.90441,22.08172 -0.41747,14.06949 -9.71665,22.9848 -23.79232,22.9848 h -39.95147 c -16.02477,0 -25.72227,-10.98531 -28.84994,-23.79232 -4.98282,-20.40342 5.91388,-33.65439 28.66593,-43.16806 z"
       sodipodi:nodetypes="csssssc" />
    <path
       id="path5023"
       style="fill:#ffffff;fill-rule:evenodd;stroke-width:4.96723;stroke-linecap:round;stroke-linejoin:round;paint-order:fill markers stroke"
       d="m -304.26452,-73.715996 a 11.351507,11.351507 0 0 0 -11.35104,11.351821 11.351507,11.351507 0 0 0 11.35104,11.351837 11.351507,11.351507 0 0 0 11.35183,-11.351837 11.351507,11.351507 0 0 0 -11.35183,-11.351821 z m 88.82735,0 a 11.351507,11.351507 0 0 0 -11.35105,11.351821 11.351507,11.351507 0 0 0 11.35105,11.351837 11.351507,11.351507 0 0 0 11.35181,-11.351837 11.351507,11.351507 0 0 0 -11.35181,-11.351821 z" />
  </g>
</svg>
